<svg width="51" height="50" viewBox="0 0 51 50" fill="none" xmlns="http://www.w3.org/2000/svg">
<path d="M34.473 25V25ZM34.473 25L34.4885 25.0879L34.5343 25.1768L34.6096 25.2675L34.7138 25.3608L34.8466 25.4577L35.0079 25.5589L35.1975 25.6654L35.4158 25.778L35.6628 25.8975L35.9388 26.025L36.2442 26.1613L36.5793 26.3074L36.9441 26.4642L37.3389 26.6327L37.7635 26.8139L38.2177 27.0086L38.701 27.2177L39.2124 27.442L39.7506 27.6822L40.3138 27.9388L40.8996 28.2123L41.5051 28.5027L42.1265 28.81L42.7596 29.1336L43.3992 29.473L44.0393 29.8267L44.6734 30.1933L45.2943 30.5706L45.894 30.9561L46.4643 31.3468L46.9967 31.7392L47.4827 32.1295L47.9137 32.5136L48.282 32.8871L48.5803 33.2454L48.8025 33.5842L48.9436 33.8991L49 34.1862L48.9698 34.4418L48.8529 34.663L48.6505 34.8475L48.3658 34.9936L48.0035 35.1006L47.5694 35.1684L47.0708 35.1978L46.5155 35.1902L45.9122 35.1477L45.2697 35.0729L44.5968 34.9689L43.9024 34.839L43.1947 34.6867L42.4815 34.5156L41.7698 34.3295L41.0658 34.1317L40.3752 33.9256L39.7025 33.7143L39.0515 33.5008L38.4252 33.2876L37.8262 33.077L37.256 32.8711L36.7158 32.6717L36.2063 32.4802L35.7278 32.2981L35.2801 32.1263L34.8629 31.9658L34.4758 31.8174L34.1178 31.6818L33.7884 31.5594L33.4866 31.4508L33.2115 31.3565L32.9622 31.277L32.738 31.2126L32.538 31.1639L32.3616 31.1314L32.2083 31.1159L32.0775 31.118L31.969 31.1387L31.8825 31.179L31.8182 31.2403L31.7753 31.3232L31.7526 31.4277L31.749 31.554L31.7634 31.7023L31.7952 31.8731L31.8437 32.0669L31.9082 32.2845L31.9883 32.5264L32.0835 32.7936L32.1933 33.0869L32.3172 33.4072L32.4547 33.7552L32.6053 34.1319L32.7683 34.5378L32.943 34.9735L33.1283 35.4395L33.3232 35.9357L33.5264 36.462L33.7363 37.0178L33.9511 37.6019L34.1688 38.2127L34.3871 38.848L34.6032 39.5049L34.8143 40.1796L35.0172 40.8677L35.2085 41.5638L35.3846 42.262L35.5419 42.9554L35.6766 43.6363L35.7851 44.2968L35.864 44.9284L35.9102 45.5222L35.9209 46.0697L35.8939 46.5625L35.8278 46.9926L35.7217 47.353L35.5755 47.6379L35.3901 47.8425L35.167 47.9637L34.9085 48L34.6177 47.9515L34.298 47.8199L33.9537 47.6086L33.5889 47.3224L33.2084 46.9671L32.8167 46.5499L32.4182 46.0783L32.0173 45.5605L31.6178 45.0049L31.2234 44.42L30.8371 43.8137L30.4616 43.1939L30.099 42.5676L29.7511 41.9414L29.4191 41.3211L29.1038 40.7118L28.8057 40.1178L28.5249 39.5428L28.2613 38.9897L28.0146 38.461L27.7841 37.9583L27.5693 37.4831L27.3692 37.0363L27.183 36.6183L27.0099 36.2297L26.8487 35.8702L26.6986 35.54L26.5586 35.2388L26.4277 34.9664L26.3049 34.7224L26.1893 34.5065L26.0801 34.3187L25.9763 34.1587L25.877 34.0265L25.7813 33.9223L25.6885 33.8463L25.5976 33.7991L25.5077 33.7816L25.4178 33.7943L25.3271 33.8368L25.2346 33.9083L25.1395 34.008L25.0408 34.1358L24.9378 34.2914L24.8295 34.4748L24.715 34.6861L24.5934 34.9256L24.4639 35.1935L24.3254 35.4901L24.1769 35.8157L24.0176 36.1705L23.8464 36.5545L23.6624 36.9678L23.4646 37.41L23.2521 37.8808L23.0242 38.3791L22.7801 38.9038L22.5192 39.4532L22.2412 40.0248L21.9458 40.616L21.6333 41.2232L21.3039 41.842L20.9584 42.4677L20.5981 43.0944L20.2245 43.7157L19.8398 44.3246L19.4464 44.9135L19.0475 45.4743L18.6466 45.9987L18.2474 46.4782L17.8543 46.9046L17.4717 47.2702L17.1042 47.5679L16.7563 47.7915L16.4324 47.936L16.1367 47.9979L15.8729 47.9752L15.6439 47.8674L15.4524 47.6759L15.2999 47.4036L15.1874 47.0548L15.115 46.6354L15.0819 46.1521L15.0867 45.6128L15.1274 45.0257L15.2013 44.3996L15.3053 43.7431L15.4361 43.0648L15.59 42.373L15.7633 41.6751L15.9525 40.9782L16.1537 40.2884L16.3638 39.6113L16.5793 38.9513L16.7974 38.3123L17.0154 37.6974L17.2308 37.1089L17.4416 36.5486L17.646 36.0175L17.8423 35.5165L18.0292 35.0457L18.2056 34.6052L18.3705 34.1945L18.5232 33.8133L18.6628 33.4607L18.789 33.1361L18.901 32.8386L18.9985 32.5673L19.0811 32.3213L19.1481 32.1L19.1992 31.9024L19.2337 31.728L19.2509 31.5761L19.2503 31.4463L19.2307 31.3384L19.1911 31.2521L19.1302 31.1874L19.0473 31.1438L18.9423 31.12L18.8151 31.115L18.6653 31.1278L18.4927 31.1576L18.2965 31.2038L18.0762 31.2657L17.831 31.3429L17.56 31.4349L17.2625 31.5412L16.9375 31.6614L16.5842 31.7949L16.2017 31.9414L15.7894 32.1L15.3466 32.27L14.873 32.4506L14.3684 32.6406L13.8331 32.8389L13.2676 33.0439L12.6731 33.2538L12.051 33.4668L11.4038 33.6804L10.7343 33.8922L10.0462 34.0993L9.34405 34.2987L8.63318 34.4869L7.91974 34.6606L7.21066 34.8161L6.51357 34.9498L5.83672 35.0582L5.18876 35.1379L4.57858 35.1857L4.01508 35.199L3.50688 35.1756L3.06205 35.114L2.68786 35.0133L2.39047 34.8734L2.17474 34.6949L2.04401 34.4794L2 34.2291L2.04272 33.9468L2.1705 33.6361L2.38005 33.3008L2.66664 32.9453L3.02425 32.5739L3.44583 32.1912L3.92357 31.8016L4.44915 31.4093L5.01401 31.0181L5.60962 30.6315L6.22763 30.2527L6.86015 29.8843L7.49979 29.5284L8.13984 29.1867L8.77431 28.8604L9.39794 28.5505L10.0062 28.2574L10.5954 27.9813L11.1624 27.722L11.7047 27.4792L12.2204 27.2524L12.7082 27.0409L13.1671 26.844L13.5965 26.6607L13.9961 26.4902L14.3657 26.3316L14.7054 26.1839L15.0155 26.0461L15.2962 25.9173L15.5478 25.7965L15.7706 25.6829L15.9649 25.5755L16.1306 25.4735L16.2679 25.376L16.3767 25.2822L16.4567 25.1911L16.5072 25.102L16.5276 25.0139L16.517 24.926L16.476 24.8374L16.4053 24.747L16.3057 24.6542L16.1774 24.5579L16.0207 24.4574L15.8356 24.3519L15.6219 24.2403L15.3795 24.122L15.1081 23.9958L14.8074 23.861L14.4771 23.7165L14.117 23.5614L13.727 23.3948L13.3071 23.2158L12.8576 23.0233L12.3789 22.8165L11.8719 22.5947L11.3379 22.3571L10.7785 22.1031L10.1961 21.8323L9.59356 21.5446L8.97436 21.24L8.34281 20.9189L7.70392 20.582L7.06345 20.2305L6.4279 19.8658L5.80443 19.4901L5.2008 19.1057L4.62522 18.7156L4.0862 18.3232L3.5923 17.9322L3.15195 17.5469L2.77316 17.1714L2.46324 16.8104L2.22857 16.4682L2.07431 16.1492L2.00424 15.8575L2.02055 15.5966L2.12376 15.3697L2.3127 15.1793L2.58453 15.027L2.93487 14.9137L3.35794 14.8397L3.8468 14.8043L4.39361 14.8061L4.98987 14.8432L5.62677 14.9131L6.29537 15.0126L6.98693 15.1387L7.69305 15.2876L8.40589 15.4559L9.11829 15.6399L9.82382 15.8361L10.5169 16.0411L11.1928 16.2517L11.8475 16.4651L12.4778 16.6785L13.0813 16.8896L13.6562 17.0964L14.2012 17.297L14.7156 17.4898L15.1991 17.6735L15.6517 17.847L16.0737 18.0093L16.4656 18.1597L16.8281 18.2974L17.162 18.422L17.4682 18.5327L17.7475 18.6293L18.0008 18.7113L18.229 18.7781L18.4327 18.8293L18.6128 18.8644L18.7698 18.8827L18.9042 18.8835L19.0163 18.8658L19.1062 18.8287L19.1741 18.7708L19.2203 18.6914L19.2461 18.5903L19.2527 18.4675L19.2411 18.3228L19.212 18.1556L19.1661 17.9654L19.1041 17.7517L19.0265 17.5137L18.9337 17.2506L18.8262 16.9615L18.7045 16.6456L18.5691 16.302L18.4205 15.93L18.2594 15.5288L18.0866 15.0978L17.9029 14.6367L17.7095 14.1453L17.5075 13.6237L17.2986 13.0726L17.0844 12.4929L16.8669 11.8862L16.6486 11.2546L16.432 10.6009L16.2198 9.9288L16.0154 9.24252L15.822 8.54726L15.6433 7.84896L15.4827 7.15437L15.3442 6.4709L15.2313 5.80657L15.1474 5.16983L15.0959 4.56938L15.0794 4.01392L15.1002 3.51193L15.16 3.07136L15.2597 2.69939L15.3995 2.40215L15.5788 2.18451L15.796 2.04985L16.0491 2L16.335 2.03509L16.6503 2.15362L16.991 2.35249L17.3528 2.62717L17.7311 2.97188L18.1214 3.37977L18.5191 3.84326L18.9199 4.35422L19.3198 4.90431L19.7153 5.48514L20.1031 6.08855L20.4804 6.70674L20.8452 7.33246L21.1955 7.95908L21.5301 8.58068L21.8481 9.19205L22.149 9.78873L22.4325 10.367L22.6988 10.9237L22.9482 11.4565L23.1812 11.9634L23.3985 12.443L23.6009 12.8944L23.7892 13.317L23.9644 13.7103L24.1274 14.0744L24.2792 14.4092L24.4208 14.715L24.5531 14.9921L24.6771 15.2406L24.7937 15.4609L24.9039 15.6532L25.0085 15.8176L25.1085 15.9542L25.2046 16.0629L25.2979 16.1434L25.389 16.1952L25.4791 16.2176L25.5689 16.2096L25.6594 16.1718L25.7515 16.105L25.8462 16.0097L25.9442 15.8864L26.0465 15.7352L26.1539 15.5562L26.2673 15.3493L26.3877 15.1143L26.5159 14.851L26.653 14.559L26.7998 14.238L26.9573 13.8879L27.1265 13.5086L27.3084 13.0999L27.504 12.6623L27.714 12.196L27.9394 11.702L28.1809 11.1814L28.4391 10.6358L28.7144 10.0675L29.007 9.47922L29.3168 8.87436L29.6436 8.25704L29.9866 7.63213L30.3446 7.00519L30.7162 6.38253L31.0993 5.77112L31.4915 5.1785L31.8897 4.61269L32.2906 4.08198L32.6903 3.59478L33.0847 3.15933L33.4692 2.78353L33.8395 2.4746L34.1908 2.23886L34.5188 2.08147L34.8192 2.00622L35.0884 2.01541L35.3231 2.10967L35.5207 2.28799L35.6795 2.54771L35.7984 2.88467L35.8772 3.2933L35.9165 3.7669L35.9176 4.29784L35.8824 4.87788L35.8136 5.49837L35.7142 6.15059L35.5874 6.82594L35.437 7.51619L35.2664 8.2136L35.0796 8.9111L34.88 9.60237L34.6712 10.2819L34.4563 10.9448L34.2384 11.5874L34.0203 12.2063L33.8043 12.7991L33.5926 13.364L33.3871 13.8998L33.1894 14.4057L33.0009 14.8813L32.8228 15.3266L32.6559 15.742L32.5013 16.1279L32.3595 16.4849L32.2312 16.8139L32.1169 17.1157L32.017 17.3912L31.9321 17.6411L31.8625 17.8663L31.8089 18.0676L31.7717 18.2457L31.7516 18.4011L31.7494 18.5344L31.7659 18.6458L31.8022 18.7356L31.8596 18.8037L31.939 18.8506L32.0405 18.8774L32.1642 18.8853L32.3103 18.8753L32.4793 18.8482L32.6717 18.8046L32.8881 18.7451L33.1293 18.6703L33.3961 18.5807L33.6893 18.4766L34.0099 18.3586L34.3586 18.2271L34.7364 18.0827L35.1439 17.926L35.5818 17.7577L36.0505 17.5788L36.5502 17.3902L37.0806 17.1931L37.6413 16.9891L38.2314 16.7798L38.8492 16.5672L39.4926 16.3535L40.1588 16.1412L40.8442 15.9331L41.5444 15.7324L42.2543 15.5421L42.9678 15.3659L43.678 15.2072L44.3776 15.0698L45.0582 14.9571L45.7114 14.8727L46.3282 14.8196L46.8997 14.8006L47.4172 14.818L47.8727 14.8735L48.2586 14.968L48.5685 15.1017L48.7975 15.2741L48.942 15.4838L48.9998 15.7288L48.9709 16.0062L48.8564 16.3126L48.6596 16.6443L48.3849 16.9968L48.0382 17.366L47.6263 17.7472L47.157 18.136L46.6384 18.5281L46.0792 18.9198L45.488 19.3073L44.873 19.6875L44.2423 20.0578L43.6033 20.4158L42.9629 20.7598L42.3272 21.0886L41.7015 21.4012L41.0905 21.697L40.498 21.9758L39.9274 22.2378L39.381 22.4832L38.8609 22.7125L38.3685 22.9263L37.905 23.1255L37.4709 23.3109L37.0666 23.4833L36.6922 23.6438L36.3477 23.7932L36.0329 23.9325L35.7475 24.0627L35.4913 24.1847L35.2639 24.2994L35.0652 24.4077L34.8949 24.5105L34.753 24.6087L34.6397 24.703L34.5551 24.7945L34.4999 24.8838L34.4746 24.972L34.473 25Z" stroke="#D782BA" stroke-width="3"/>
</svg>
