<svg id="Calque_1" data-name="Calque 1" xmlns="http://www.w3.org/2000/svg" viewBox="0 0 409.6 409.6"><defs><style>.cls-1{fill:none;}.cls-2{fill:#282f64;}.cls-3{fill:#fff;}.cls-4{fill:#d787ba;}</style></defs><path class="cls-1" d="M345.72,0H409.6V409.6H0V0H75.85C74.56.23,73.27.57,72,.68A23.35,23.35,0,0,0,51.18,17.35C43.45,44.44,45.78,70.56,60,95.11c2.77,4.79,2.82,8.48,1.07,13.56-9.08,26.39-9.85,52.81,3,78.21,4.2,8.27,10.71,15.42,16.5,22.81a5.76,5.76,0,0,0,8,1.29,6.51,6.51,0,0,0,.79-.69c2.31-2.27,2.29-5.61-.16-8.61-1.18-1.43-2.54-2.72-3.77-4.11a72,72,0,0,1-17.67-36.88c-4.36-27.13,2.46-51.62,17.71-74.11A5.78,5.78,0,0,1,91,83.72c26.21.1,52.42.18,78.63,0,6.41,0,12.45,0,17,5.39A5.28,5.28,0,0,0,188,90a43.58,43.58,0,0,0,50.36-3.3c1.73-1.38,4.12-2.73,6.21-2.75q43.31-.27,86.62,0a6.75,6.75,0,0,1,4.71,2.5A100.15,100.15,0,0,1,353.49,127c3.36,17.92,2.33,35.5-5.34,52.3-9.17,20.06-25.35,32.79-44.8,41.77-25.16,11.62-52,16-79.41,16.89-39.21,1.3-77.61-2.11-113.26-20.61-3.83-2-7.21-.78-8.73,2.6-1.42,3.15-.14,6.19,3.6,8.13,3.3,1.71,6.75,3.16,10,5a3.93,3.93,0,0,1,1.73,2.95c-.07,1.39-.65,3.45-1.66,4a20.32,20.32,0,0,1-27.42-8.64c-.07-.13-.14-.26-.2-.39a25,25,0,0,0-46.71,17.37c6,22,28.94,40.72,53,43,6.28.61,12.61.67,18.68,1v9.4c-9.67-1.73-19-4-28.4-5-24.84-2.62-48.91,13.63-56.29,37.41a17.89,17.89,0,0,0,18.63,23.45c7.62-.67,12.67-5.06,15.43-12.09,3.45-8.82,9.68-13.45,19.33-12.82,3.43.22,7.13.07,10.23,1.29,13.34,5.26,28.26,5.59,40.74,13.67,5,3.21,10.75,5.21,16.31,7.39,2.86,1.13,3.54,2.74,3.57,5.66.08,9,0,18.12,1,27.08,1.44,13.29,15.36,23,28.44,20.53,12.76-2.4,20.88-11.8,21-24.73.11-8.77-.18-17.56-.08-26.33,0-1.19,1.24-3.31,2-3.37,4.58-.32,9.2-.16,14.09-.16v4.44c-.06,9-.29,18.08-.12,27.12.18,10.07,8,19.63,18,22.47s22-1.33,27.49-9.76c2.17-3.32,1.91-6.43-.71-8.57s-5.76-1.78-8.49,1c-.74.76-1.35,1.66-2.12,2.38-3.79,3.55-8.18,4.87-13.22,3.23s-8.54-5.15-8.82-10.29c-.5-9.35-.14-18.76-.14-29.51,7.94,10.07,16.84,10.05,26.79,5.33,0,3-.13,5.26,0,7.5.27,4,2.44,6.19,5.87,6.2s5.7-2.2,5.93-6.15a65.27,65.27,0,0,0-.08-9.17c-.21-2.57.85-3.77,3.11-4.74q10.62-4.55,21.09-9.47c10.28-4.85,15.4-13.12,15.41-24.44,0-6.12-.35-12.24-.44-18.36-.08-5.42,0-10.85,0-16.37,1.68-.23,3.25-.5,4.84-.66,26.09-2.66,46.7-15.14,62.75-35.44a24.48,24.48,0,0,0,1.14-29.4,24.93,24.93,0,0,0-27.61-10.23c-6.35,1.66-10.75,6-14.91,10.81-7.93,9.17-17.82,14.38-30.5,13.76a7.36,7.36,0,0,1,3.2-3,117,117,0,0,0,31.85-20.93c15.82-14.73,24.87-32.92,27.27-54.39a111.49,111.49,0,0,0-7.17-52.83,7.92,7.92,0,0,1,.48-5.44c2.22-4.81,5.18-9.3,7.24-14.17,9.37-22.19,10.3-44.93,3.24-67.85C367.34,7,359.92,1.75,349.66.64A38.08,38.08,0,0,1,345.72,0ZM210.13,139.94c8.55-.2,14.68-2.95,19.7-8.17,2.7-2.8,2.94-6,.71-8.54s-5.52-2.61-8.55-.32c-9.16,7-13.23,7-22.17.06-3-2.31-6.34-2.24-8.57.18s-2,5.88.6,8.58C197.17,137.3,203.73,140,210.13,139.94Zm-91.46,9.39c3.87.18,7,.38,10.24.46,4.34.12,7.17-2,7.46-5.53s-2.28-6.38-6.65-6.25q-15.3.45-30.57,1.75c-4.61.38-7,3.46-6.35,7s3.79,5.34,8.31,4.72c6-.81,12.13-1.48,17.56-2.15Zm-12.06,35.16c2.12-.82,3.26-1.17,4.31-1.68,8.8-4.25,17.56-8.58,26.39-12.77,3.83-1.81,5.4-4.46,4.21-7.78s-4.46-4.9-8.47-3.31c-6.39,2.52-12.71,5.26-18.9,8.23a43,43,0,0,0-10.1,6.22,7.71,7.71,0,0,0-2,6.47c.47,1.9,3.13,3.24,4.61,4.62Zm196.87-47.15c-4.26.21-7.85.31-11.42.59-4.44.34-6.9,2.72-6.7,6.29s3.1,5.43,7.4,5.63q14.1.66,28.18,1.74c4.28.33,7.34-1.26,7.95-4.76s-1.63-6.44-5.87-7.06C316.32,138.8,309.58,138.09,303.48,137.34Zm11.72,47.12c1.44-1.38,3.71-2.7,4.67-4.67a5,5,0,0,0-2.25-6.7l-.26-.12q-14.73-7.38-29.69-14.31c-2.92-1.34-5.52,0-7.1,2.76-1.74,3-.34,6.57,3.09,8.24q13.75,6.69,27.54,13.35c.94.45,2,.72,4,1.45ZM158.83,121.91h0c0-1.59.11-3.2,0-4.78-.29-3.52-2.68-5.93-5.8-6a6,6,0,0,0-6,5.74,64,64,0,0,0,.06,10.36,5.45,5.45,0,0,0,5.55,5.33l.34,0c3.44,0,5.36-2.13,5.81-5.44A39.08,39.08,0,0,0,158.83,121.91Zm115.8,0h0c0-1.73.12-3.47,0-5.18a5.54,5.54,0,0,0-5.33-5.5c-3.13-.29-5.77,1.32-6.1,4.49a56.92,56.92,0,0,0,.11,12.65c.37,3,2.91,4.39,5.94,4.15a5.45,5.45,0,0,0,5.31-5A38.91,38.91,0,0,0,274.63,121.91Z"/><path class="cls-2" d="M345.72,0c1.3.23,2.59.54,3.9.68,10.26,1.11,17.66,6.38,20.68,16.18,7.06,22.92,6.13,45.66-3.24,67.85-2.06,4.87-5,9.36-7.24,14.17a7.92,7.92,0,0,0-.48,5.44c6.55,17.07,9.21,34.64,7.17,52.83-2.4,21.47-11.45,39.66-27.27,54.39a117,117,0,0,1-31.85,20.93,7.36,7.36,0,0,0-3.2,3c12.68.62,22.57-4.59,30.5-13.76,4.16-4.81,8.56-9.15,14.91-10.81a24.93,24.93,0,0,1,27.61,10.23,24.48,24.48,0,0,1-1.14,29.4C360,270.84,339.41,283.32,313.32,286c-1.59.16-3.16.43-4.84.66,0,5.52-.06,10.95,0,16.37.09,6.12.45,12.24.44,18.36,0,11.32-5.13,19.59-15.41,24.44q-10.45,4.94-21.09,9.47c-2.26,1-3.32,2.17-3.11,4.74a65.27,65.27,0,0,1,.08,9.17c-.23,4-2.51,6.17-5.93,6.15s-5.6-2.22-5.87-6.2c-.15-2.24,0-4.5,0-7.5-9.95,4.72-18.85,4.74-26.79-5.33,0,10.75-.36,20.16.14,29.51.28,5.14,3.81,8.66,8.82,10.29s9.43.32,13.22-3.23c.77-.72,1.38-1.62,2.12-2.38,2.73-2.81,5.86-3.17,8.49-1s2.88,5.25.71,8.57c-5.49,8.43-17.36,12.64-27.49,9.76s-17.81-12.4-18-22.47c-.17-9,.06-18.08.12-27.12v-4.44c-4.89,0-9.51-.16-14.09.16-.77.06-2,2.18-2,3.37-.1,8.77.19,17.56.08,26.33-.17,12.93-8.29,22.33-21,24.73-13.08,2.46-27-7.24-28.44-20.53-1-9-.89-18.05-1-27.08,0-2.92-.71-4.53-3.57-5.66-5.56-2.18-11.35-4.18-16.31-7.39-12.48-8.08-27.4-8.41-40.74-13.67-3.1-1.22-6.8-1.07-10.23-1.29-9.65-.63-15.88,4-19.33,12.82-2.76,7-7.81,11.42-15.43,12.09a17.88,17.88,0,0,1-18.65-23.5c7.38-23.78,31.45-40,56.29-37.41,9.43,1,18.73,3.24,28.4,5v-9.4c-6.07-.3-12.4-.36-18.68-1-24-2.31-47-21.06-53-43A25,25,0,0,1,88,231a20.33,20.33,0,0,0,27.23,9.22l.43-.22c1-.53,1.59-2.59,1.66-4a3.93,3.93,0,0,0-1.73-2.95c-3.24-1.82-6.69-3.27-10-5-3.74-1.94-5-5-3.6-8.13,1.52-3.38,4.9-4.6,8.73-2.6,35.65,18.5,74,21.91,113.26,20.61,27.43-.92,54.25-5.27,79.41-16.89,19.45-9,35.63-21.71,44.8-41.77,7.67-16.8,8.7-34.38,5.34-52.3A100.37,100.37,0,0,0,335.9,86.35a6.75,6.75,0,0,0-4.71-2.5q-43.32-.22-86.62,0c-2.09,0-4.48,1.37-6.21,2.75A43.58,43.58,0,0,1,188,90a5.38,5.38,0,0,1-1.34-.86c-4.52-5.41-10.56-5.44-17-5.39-26.21.2-52.42.12-78.63,0a5.78,5.78,0,0,0-5.51,2.86c-15.25,22.49-22.07,47-17.71,74.11A72,72,0,0,0,85.48,197.6c1.23,1.39,2.59,2.68,3.77,4.11,2.45,3,2.47,6.34.16,8.61a5.75,5.75,0,0,1-8.13.19,6.51,6.51,0,0,1-.69-.79c-5.79-7.39-12.3-14.54-16.5-22.81-12.9-25.4-12.13-51.82-3-78.21,1.75-5.08,1.7-8.77-1.07-13.56C45.84,70.59,43.51,44.47,51.24,17.38A23.33,23.33,0,0,1,72,.68C73.3.57,74.59.23,75.88,0H91a10.4,10.4,0,0,0,1.9.57,99.27,99.27,0,0,1,54.47,23.2,6,6,0,0,0,4.59.72c9.81-2.25,19.58-4.68,29.33-7.18a29.9,29.9,0,0,0,7-2.67c15-8.37,30-8.39,45.09-.07a30.87,30.87,0,0,0,7.32,2.78c9.37,2.39,18.84,4.4,28.16,7,2.82.78,4.58.44,6.73-1.37A93,93,0,0,1,315,3.07C320.16,1.87,325.39,1,330.58,0ZM292.65,238.42c-2.26.67-3.74,1.22-5.27,1.55-11.79,2.55-23.56,5.23-35.39,7.52-5.63,1.09-10.92,6.63-10.93,12.44v86.13c0,6.29,2.81,8.18,8.65,5.7,12.45-5.3,24.82-10.79,37.28-16.06,7.15-3,10.3-8.28,10-15.95-.65-16.73-1-33.48-1.8-50.2C294.71,259.37,293.56,249.21,292.65,238.42ZM129.21,239.5a30,30,0,0,0-.58,3.64q-2,38.61-3.93,77.21c-.36,7.18,2.78,12.19,9.43,15.08,9.49,4.12,18.93,8.37,28.4,12.54,1,.43,2.08.67,3.49,1.12-6.11-15.34-1.58-26.92,12.61-33.85a4.36,4.36,0,0,0,1.94-3.26c.12-17.67.11-35.35.06-53,0-3.76-5.18-10.35-8.37-11ZM242.84,52.43A32.13,32.13,0,0,0,211,20.33c-17.33-.22-32,14.28-32.18,31.79s14.57,32.42,32.06,32.35A32.27,32.27,0,0,0,242.84,52.43ZM69.93,88.87c8.73-15.11,20-27.38,33.38-38.13-12.78-10.37-27.07-16.5-43-20.18C56.91,51.07,59.63,70.16,69.93,88.87ZM361.44,30.52c-16,3.79-30.31,9.84-43.06,20.26a134.76,134.76,0,0,1,33.42,38C362.12,70.36,364.71,51.21,361.44,30.52ZM228.84,340.44V269.91c-2.82,2.18-5,4.35-7.61,5.77-3.78,2.07-4.7,5-4.85,9.08a78.92,78.92,0,0,1-7.92,32.63c-1.9,3.81-2.42,6.72-.35,10.88,1.94,3.93,1.9,8.84,2.84,13.86ZM63.81,18.7a7.64,7.64,0,0,0,1.2.55c17.24,4.29,33,11.55,46.87,22.82.74.6,2.71.36,3.74-.18,6.34-3.31,12.59-6.82,18.85-10.29a11.22,11.22,0,0,0,1.6-1.32C118.83,16.37,93.39,9.43,72.2,12.74A10.46,10.46,0,0,0,63.81,18.7Zm221.7,11.63c7,4,13.67,7.58,20.15,11.46,2,1.23,3.35,1.2,5.19-.3A111.08,111.08,0,0,1,354,20c1.32-.34,2.6-.82,4.08-1.3a11.65,11.65,0,0,0-9.29-6.1,84.14,84.14,0,0,0-33.52,2.62A80.86,80.86,0,0,0,285.51,30.33ZM98.23,70.61l.63,1h71.78l-4.3-16.4A7.62,7.62,0,0,0,165,55H119.56a4.08,4.08,0,0,0-2.31.34C110.89,60.38,104.57,65.51,98.23,70.61Zm152.9.85H323a144.55,144.55,0,0,0-16.54-14.63,9.59,9.59,0,0,0-5.4-1.77c-14.23-.14-28.46-.08-42.69-.07-1.15,0-2.3.15-3,.2C253.9,60.87,252.54,66.09,251.13,71.46ZM67.23,267c13.13,11.22,29,14.61,46.65,12.6.59-9.07,1.17-17.75,1.73-26.34-.59-.19-.85-.37-1.08-.33-8.24,1.49-16.34,1.51-24.19-2a3,3,0,0,0-2.48.47C81,256.46,74.19,261.67,67.23,267Zm240.36,7.51c15.42-.78,29-5.43,40.44-13.69-6-6.4-11.93-12.68-17.59-18.7l-24.69,7.37c.57,7.67,1.19,16.11,1.84,25ZM163.91,360.92c.5,9.51.54,17.72,1.48,25.81.68,5.86,6.63,10.06,12.63,10.06s12.15-4.33,12.57-10.11c.61-8.5.16-17.08.16-27C181.71,364.44,173.41,367.46,163.91,360.92Zm-51-33.07c.6-12.27.61-12.32-10.23-15.7-11.61-3.6-23.36-5.21-35.31-1.66a38.3,38.3,0,0,0-20.3,13.87l10.58,5.5c1.87-1.47,3.55-3,5.42-4.22,9.93-6.54,20.67-6,31.51-3.22,6.17,1.58,12.19,3.58,18.35,5.43ZM357.78,222c-6.37-.07-14.78,5.64-16.53,10.57a4,4,0,0,0,.47,2.56,30.6,30.6,0,0,0,12.45,14c3.31,1.94,6.06,2.89,8.51-1.25,1.26-2.14,3.37-3.77,4.74-5.85a12.19,12.19,0,0,0,.49-13.2C365.5,224.41,361.62,222.17,357.78,222ZM58.23,257.34c5.89-3.67,11.3-6.67,16.31-10.25,6.17-4.41,6.06-4.8,2.48-11.35s-10.44-8.92-16.92-6.11a13,13,0,0,0-7,16.55C54.33,249.63,56.14,252.88,58.23,257.34Zm140,80.05a11.57,11.57,0,0,0-11.55-11.59h-.08a11.83,11.83,0,0,0-11.51,11.42,11.65,11.65,0,0,0,11.54,11.72,11.42,11.42,0,0,0,11.59-11.25v-.3Zm31.86-87.24H191.8c4.86,8.44,12.15,13,19.06,18.26,7-5.21,14.14-9.9,19.22-18.26Zm-37.44,19.72c0,14.71,0,28.51.08,42.31,0,1,1.14,2,1.75,3,.94-.65,2.3-1.09,2.74-2,5.08-10.29,7.16-21.29,7.41-32.69a3.31,3.31,0,0,0-.93-2.41c-3.4-2.62-6.92-5.15-11.06-8.21ZM139.94,41.61l.33,1.39c8.33,0,16.66.06,25-.07a3.94,3.94,0,0,0,3-1.71c1.32-3,2.23-6.14,3.74-10.53Zm109.78-11c1.55,4.46,2.6,7.7,3.85,10.86a2.7,2.7,0,0,0,2,1.41c8.63.09,17.26.06,25.9.06.09-.46.19-.92.28-1.38ZM41,334.85c-1.79,3.4-2.65,6.37-.14,8.7,1.35,1.26,4,2.31,5.58,1.87,2-.56,3.54-2.76,5.94-4.81Z"/><path class="cls-3" d="M330.55,0C325.36,1,320.13,1.87,315,3.07A93,93,0,0,0,275.56,23c-2.15,1.81-3.91,2.15-6.73,1.37-9.32-2.59-18.79-4.6-28.16-7a30.87,30.87,0,0,1-7.32-2.78c-15.07-8.32-30-8.3-45.09.07a29.9,29.9,0,0,1-6.95,2.67c-9.75,2.5-19.52,4.93-29.33,7.18a6,6,0,0,1-4.59-.72A99.27,99.27,0,0,0,92.92.59,10.66,10.66,0,0,1,91,0Z"/><path class="cls-2" d="M210.13,139.94a24.92,24.92,0,0,1-18.28-8.21c-2.58-2.7-2.79-6.19-.6-8.58s5.57-2.49,8.57-.18c8.94,6.91,13,6.9,22.17-.06,3-2.29,6.35-2.17,8.55.32s2,5.74-.71,8.54C224.81,137,218.68,139.74,210.13,139.94Z"/><path class="cls-2" d="M118.67,149.33c-5.43.66-11.51,1.34-17.56,2.17-4.52.62-7.66-1.07-8.31-4.72s1.74-6.64,6.35-7q15.25-1.28,30.57-1.75c4.37-.13,6.93,2.77,6.65,6.25s-3.12,5.65-7.46,5.53C125.72,149.71,122.54,149.51,118.67,149.33Z"/><path class="cls-2" d="M106.61,184.49c-1.48-1.38-4.14-2.72-4.61-4.62a7.71,7.71,0,0,1,2-6.47,43,43,0,0,1,10.1-6.22c6.19-3,12.51-5.71,18.9-8.23,4-1.59,7.25-.1,8.47,3.31s-.38,6-4.21,7.78c-8.83,4.19-17.59,8.52-26.39,12.77C109.87,183.32,108.73,183.67,106.61,184.49Z"/><path class="cls-2" d="M303.48,137.34c6.1.75,12.84,1.46,19.54,2.43,4.24.62,6.48,3.55,5.87,7.06s-3.67,5.09-7.95,4.76q-14.07-1.09-28.18-1.74c-4.3-.2-7.2-2.17-7.4-5.63s2.26-5.95,6.7-6.29C295.63,137.65,299.22,137.55,303.48,137.34Z"/><path class="cls-2" d="M315.2,184.46c-2-.73-3.06-1-4-1.45q-13.79-6.64-27.54-13.35c-3.43-1.67-4.83-5.2-3.09-8.24,1.58-2.74,4.18-4.1,7.1-2.76q15,6.9,29.69,14.31a5,5,0,0,1,2.63,6.56l-.12.26C318.91,181.76,316.64,183.08,315.2,184.46Z"/><path class="cls-2" d="M158.83,121.91a37.31,37.31,0,0,1,0,5.18c-.45,3.31-2.37,5.4-5.81,5.44a5.44,5.44,0,0,1-5.87-5c0-.11,0-.23,0-.34a64,64,0,0,1-.06-10.36,6,6,0,0,1,6-5.74c3.12.08,5.51,2.49,5.8,6,.13,1.58,0,3.19,0,4.78Z"/><path class="cls-2" d="M274.63,121.91a39.82,39.82,0,0,1-.05,5.57,5.45,5.45,0,0,1-5.31,5c-3,.24-5.57-1.19-5.94-4.15a56.92,56.92,0,0,1-.11-12.65c.33-3.17,3-4.78,6.1-4.49a5.54,5.54,0,0,1,5.33,5.5c.14,1.71,0,3.45,0,5.18Z"/><path class="cls-4" d="M292.65,238.42c.91,10.79,2.06,21,2.56,31.13.81,16.72,1.15,33.47,1.8,50.2.29,7.67-2.86,12.92-10,15.95-12.46,5.27-24.83,10.76-37.28,16.06-5.84,2.48-8.65.59-8.65-5.7V259.93c0-5.81,5.3-11.35,10.93-12.44,11.83-2.29,23.6-5,35.39-7.52C288.91,239.64,290.39,239.09,292.65,238.42ZM268,262.68h-8c-3.57.29-5.94,2.48-6.1,5.64a5.85,5.85,0,0,0,5.46,6.2h.45c5.57.22,11.17.22,16.74,0a5.85,5.85,0,0,0,5.73-6v0c-.06-3.19-2.38-5.58-5.93-5.79C273.61,262.55,270.81,262.68,268,262.68Z"/><path class="cls-4" d="M129.21,239.5l43,8.48c3.19.63,8.36,7.22,8.37,11,0,17.67.06,35.35-.06,53a4.36,4.36,0,0,1-1.94,3.26c-14.19,6.93-18.72,18.51-12.61,33.85-1.41-.45-2.5-.69-3.49-1.12-9.47-4.17-18.91-8.42-28.4-12.54-6.65-2.89-9.79-7.9-9.43-15.08q1.92-38.6,3.93-77.21A32.21,32.21,0,0,1,129.21,239.5Z"/><path class="cls-4" d="M242.84,52.43a32.27,32.27,0,0,1-31.94,32c-17.49.07-32.23-14.8-32.06-32.35s14.85-32,32.18-31.79A32.14,32.14,0,0,1,242.84,52.43Zm-11.2-.2a20.81,20.81,0,1,0-20.65,21,20.82,20.82,0,0,0,20.65-21Z"/><path class="cls-1" d="M69.93,88.87c-10.3-18.71-13-37.8-9.64-58.31,15.95,3.68,30.24,9.81,43,20.18C89.91,61.49,78.66,73.76,69.93,88.87Z"/><path class="cls-1" d="M361.44,30.52c3.27,20.69.68,39.84-9.64,58.26a134.76,134.76,0,0,0-33.42-38C331.13,40.36,345.46,34.31,361.44,30.52Z"/><path class="cls-1" d="M228.84,340.44,211,342.13c-.94-5-.9-9.93-2.84-13.86-2.07-4.16-1.55-7.07.35-10.88a78.92,78.92,0,0,0,7.92-32.63c.15-4.06,1.07-7,4.85-9.08,2.6-1.42,4.79-3.59,7.61-5.77Z"/><path class="cls-1" d="M63.81,18.7a10.48,10.48,0,0,1,8.39-6c21.19-3.31,46.63,3.63,63.87,17.54a11.22,11.22,0,0,1-1.6,1.32c-6.26,3.47-12.51,7-18.85,10.29-1,.54-3,.78-3.74.18C98,30.8,82.25,23.54,65,19.25A8.56,8.56,0,0,1,63.81,18.7Z"/><path class="cls-1" d="M285.51,30.33a80.78,80.78,0,0,1,29.72-15.08,84.14,84.14,0,0,1,33.52-2.62,11.65,11.65,0,0,1,9.29,6.1c-1.48.48-2.76,1-4.08,1.3a111,111,0,0,0-43.11,21.46c-1.84,1.5-3.15,1.53-5.19.3C299.18,37.91,292.54,34.3,285.51,30.33Z"/><path class="cls-4" d="M98.23,70.61c6.34-5.1,12.66-10.23,19-15.27a4.08,4.08,0,0,1,2.31-.34H165a8.26,8.26,0,0,1,1.31.18l4.3,16.4H98.86Z"/><path class="cls-4" d="M251.13,71.46c1.41-5.37,2.77-10.59,4.26-16.27.67,0,1.82-.2,3-.2,14.23,0,28.46-.07,42.69.07a9.59,9.59,0,0,1,5.4,1.77A144.35,144.35,0,0,1,323,71.46Z"/><path class="cls-1" d="M67.23,267c7-5.29,13.76-10.5,20.63-15.62a3,3,0,0,1,2.48-.47c7.85,3.53,16,3.51,24.19,2a5.18,5.18,0,0,1,1.08.33c-.56,8.59-1.14,17.27-1.73,26.34C96.2,281.57,80.36,278.18,67.23,267Z"/><path class="cls-1" d="M307.59,274.47c-.65-8.87-1.27-17.31-1.84-25l24.69-7.37c5.66,6,11.58,12.3,17.59,18.7C336.57,269,323,273.69,307.59,274.47Z"/><path class="cls-1" d="M163.91,360.92c9.5,6.54,17.8,3.52,26.84-1.23,0,9.91.45,18.49-.16,27-.42,5.78-6.6,10.11-12.57,10.11s-12-4.2-12.63-10.06C164.45,378.64,164.41,370.43,163.91,360.92Z"/><path class="cls-1" d="M112.93,327.85c-6.16-1.84-12.18-3.88-18.33-5.43-10.84-2.74-21.58-3.32-31.51,3.22-1.87,1.23-3.55,2.75-5.42,4.22l-10.58-5.5a38.3,38.3,0,0,1,20.3-13.87c12-3.55,23.7-1.94,35.31,1.66C113.54,315.53,113.53,315.58,112.93,327.85Z"/><path class="cls-1" d="M357.78,222c3.84.2,7.72,2.44,10.13,6.85a12.19,12.19,0,0,1-.49,13.2c-1.37,2.08-3.48,3.71-4.74,5.85-2.45,4.14-5.2,3.19-8.51,1.25a30.6,30.6,0,0,1-12.45-14,4,4,0,0,1-.47-2.56C343,227.61,351.41,221.9,357.78,222Z"/><path class="cls-1" d="M58.23,257.34c-2.09-4.46-3.9-7.71-5.17-11.16a13,13,0,0,1,7-16.55c6.48-2.81,13.42-.31,16.92,6.11s3.69,6.94-2.48,11.35C69.53,250.67,64.12,253.67,58.23,257.34Z"/><path class="cls-1" d="M198.22,337.39a11.42,11.42,0,0,1-11.29,11.55h-.31a11.65,11.65,0,0,1-11.54-11.72,11.83,11.83,0,0,1,11.51-11.42,11.57,11.57,0,0,1,11.63,11.51Z"/><path class="cls-1" d="M230.08,250.15c-5.1,8.36-12.22,13-19.22,18.26-6.91-5.21-14.2-9.82-19.06-18.26Z"/><path class="cls-1" d="M192.64,269.87c4.14,3.06,7.66,5.59,11.05,8.26a3.31,3.31,0,0,1,.93,2.41c-.25,11.4-2.33,22.4-7.41,32.69-.44.9-1.8,1.34-2.74,2-.61-1-1.75-2-1.75-3C192.6,298.38,192.64,284.58,192.64,269.87Z"/><path class="cls-1" d="M139.94,41.61l32-10.92c-1.51,4.39-2.42,7.55-3.74,10.53a3.94,3.94,0,0,1-3,1.71c-8.33.13-16.66.07-25,.07Z"/><path class="cls-1" d="M249.72,30.66l32,11c-.09.46-.19.92-.28,1.38-8.64,0-17.27,0-25.9-.06a2.7,2.7,0,0,1-2-1.41C252.32,38.36,251.27,35.12,249.72,30.66Z"/><path class="cls-1" d="M41,334.85l11.38,5.76c-2.4,2.05-3.94,4.25-5.94,4.81-1.61.44-4.23-.61-5.58-1.87C38.34,341.22,39.2,338.25,41,334.85Z"/><path class="cls-2" d="M268,262.68c2.79,0,5.59-.13,8.37,0,3.55.21,5.87,2.6,5.93,5.79a5.85,5.85,0,0,1-5.7,6h0c-5.57.25-11.17.25-16.74,0a5.83,5.83,0,0,1-5.92-5.76c0-.15,0-.3,0-.45.16-3.16,2.53-5.35,6.1-5.64h8Z"/><path class="cls-2" d="M231.64,52.23a20.81,20.81,0,1,1-20.91-20.72A20.81,20.81,0,0,1,231.64,52.23Zm-12,.12a8.8,8.8,0,0,0-8.83-8.77h-.07a8.92,8.92,0,0,0-8.7,8.61,8.8,8.8,0,1,0,17.6.16Z"/><path class="cls-1" d="M219.64,52.35a8.8,8.8,0,1,1-8.9-8.74,8.8,8.8,0,0,1,8.9,8.7Z"/></svg>