<svg id="Calque_1" data-name="Calque 1" xmlns="http://www.w3.org/2000/svg" viewBox="0 0 348.52 348.5"><defs><style>.cls-1{fill:none;}.cls-2,.cls-5{fill:#282f64;}.cls-3{fill:#fff;}.cls-4{fill:#d787ba;}.cls-5{opacity:0.2;isolation:isolate;}</style></defs><path class="cls-1" d="M309.26,34.69h77.43v348.5H38.21V305.07c2.26,5.21,5.19,10,11.21,11.19,7.47,1.48,13.33,5.35,18.44,10.71C80.79,340.52,97,344.35,115,342.83c13.15-1.11,24.14-6.44,32.15-17.23a8.87,8.87,0,0,1,1.77-1.34c.26,4.33.76,8.17.66,12-.22,8.13-.9,16.26-1.14,24.39a21.41,21.41,0,0,0,19.2,21.76c10.43,1.22,20.51-6.05,22.8-16.62a71.38,71.38,0,0,0,1.26-10.08c.45-6.51.71-13,1.07-19.77l12.2-.54c0,4.51,0,8.89,0,13.26-.08,5.74-.95,11.58-.2,17.2,1.19,8.83,9.49,15.65,18.72,16.57a21.67,21.67,0,0,0,21.38-12.63c1.3-3,.58-5.63-1.94-7.05s-5.05-.6-6.93,2.2c-.25.37-.48.76-.72,1.15-3.16,5.11-8.1,7.23-13.18,5.64s-8.18-6.08-7.89-12c.4-8.13.77-16.26,1.35-24.39a3.89,3.89,0,0,1,2.21-2.55c5.29-2.28,10.66-4.34,16-6.49,1.08-.44,2.12-1,3.35-1.55.25,2.67.57,4.92.65,7.17.13,3.85.08,7.66.15,11.55s1.89,6,4.93,6.07c3.2.09,5.27-2.21,5.21-6.14-.09-5.65.16-11.39-.73-16.92-.94-5.9-.35-10.61,5.2-13.8a5.44,5.44,0,0,0,1.41-1.46c4.26-5.28,8.43-10.57,12.82-16.08a43.76,43.76,0,0,0,31.43.27A54.41,54.41,0,0,0,323.65,276c1.92,8.14,6.05,12.12,12.81,12.18q18.5.17,37,0A12.32,12.32,0,0,0,386,276a2.67,2.67,0,0,0,0-.4q.19-23.94,0-47.89a8.69,8.69,0,0,0-8.43-8.93h-.33q-22.24-.15-44.49,0c-4.79,0-8.18,3.4-8.76,8.22-.12,1-.23,2-.39,3.31H312.65c-8.61.06-13,4.36-13.61,13a3.86,3.86,0,0,1-1.38,2.61c-3.47,2.46-7.19,4.57-10.59,7.12s-4.73,2.61-8.34.12c-6.37-4.36-6.24-11.53-8.31-17,8.62-5,17.15-9.29,24.91-14.65,12.44-8.61,21.91-20,27.13-34.35,7.59-20.91,6.52-41.76-1.22-62.37a7.36,7.36,0,0,1,.6-7.19c12.72-21.12,15.31-43.63,8.8-67.28-2.39-8.82-9.25-14.29-18.41-15.07A29.88,29.88,0,0,1,309.26,34.69ZM337.9,203.15l.46.11c.09,1.71.05,3.41.3,5.11a5.15,5.15,0,0,0,5.29,4.7,4.86,4.86,0,0,0,4.73-5,4.38,4.38,0,0,0,0-.51c-.48-5.95,1.22-11.57,2.46-17.3a45.94,45.94,0,0,0,.78-11.7,4.84,4.84,0,0,0-4.8-4.87,5.2,5.2,0,0,0-1,.09c-2.84.42-4.16,2.56-4.25,5.92a74.35,74.35,0,0,1-1.13,10C339.91,194.14,338.86,198.63,337.9,203.15Zm27.69-22.22.38.08c-.48,2.55-.85,5.1-1.48,7.56-1.66,6.35-3.27,12.67-2.32,19.33.45,3.21,2.41,5.23,5.2,5.11a5,5,0,0,0,4.87-5.06c0-.13,0-.26,0-.39-.7-6.38,1.43-12.22,2.62-18.29a44,44,0,0,0,.37-11.35c-.21-3-2.41-4.5-5.49-4.26-2.75.26-4.35,2.39-4.25,5.5,0,.62.08,1.18.12,1.75Z" transform="translate(-38.17 -34.69)"/><path class="cls-2" d="M309.26,34.69a29.88,29.88,0,0,0,3,.56c9.16.78,16,6.27,18.41,15,6.49,23.64,3.92,46.15-8.8,67.27a7.36,7.36,0,0,0-.6,7.19c7.74,20.61,8.81,41.47,1.22,62.37-5.22,14.39-14.69,25.75-27.13,34.35-7.76,5.37-16.29,9.64-24.91,14.65,2.07,5.45,1.94,12.62,8.31,17,3.61,2.48,4.84,2.55,8.34-.12s7.12-4.66,10.59-7.12A3.94,3.94,0,0,0,299,243.3c.58-8.67,5-13,13.61-13h10.92c.16-1.33.27-2.31.39-3.31.58-4.81,4-8.19,8.76-8.22q22.25-.14,44.49,0a8.7,8.7,0,0,1,8.77,8.61c0,.11,0,.22,0,.33q.15,24,0,47.89a12.32,12.32,0,0,1-12.1,12.55h-.4q-18.5.18-37,0c-6.76-.07-10.89-4-12.81-12.19a54.37,54.37,0,0,1-25.46,19.44,43.76,43.76,0,0,1-31.43-.28c-4.39,5.52-8.6,10.8-12.82,16.09a5.4,5.4,0,0,1-1.41,1.45c-5.55,3.19-6.14,7.9-5.2,13.8.85,5.54.64,11.27.73,16.92.06,3.93-2,6.23-5.21,6.15-3-.08-4.86-2.29-4.93-6.08s0-7.7-.15-11.54c-.08-2.26-.4-4.51-.65-7.18-1.23.57-2.27,1.11-3.35,1.55-5.33,2.15-10.7,4.21-16,6.49a4,4,0,0,0-2.21,2.56c-.58,8.12-.95,16.26-1.35,24.39-.29,5.95,2.66,10.45,7.84,12.06s10-.52,13.19-5.64c.24-.39.47-.78.72-1.15,1.88-2.8,4.43-3.61,6.93-2.2s3.23,4,1.94,7.05a21.61,21.61,0,0,1-21.38,12.63c-9.2-.92-17.49-7.74-18.72-16.57-.76-5.62.12-11.46.2-17.2.05-4.37,0-8.75,0-13.26l-12.2.54c-.36,6.73-.63,13.26-1.08,19.77a71.38,71.38,0,0,1-1.26,10.08c-2.28,10.57-12.37,17.87-22.79,16.62a21.41,21.41,0,0,1-19.2-21.76c.24-8.13.92-16.26,1.14-24.39.1-3.83-.4-7.66-.67-12a9.16,9.16,0,0,0-1.77,1.34c-8,10.79-19,16.12-32.14,17.23-18,1.52-34.22-2.31-47.15-15.86-5.11-5.36-11-9.23-18.44-10.71-6-1.19-9-5.95-11.21-11.19V299c4.25-13,14-13.83,23.36-11.12a57.12,57.12,0,0,1,26,15.9c5.91,6.23,12.85,9,21.46,9,7.8,0,13.35-2.86,16.48-10a4.84,4.84,0,0,0,0-3.59c-1.75-3.78-4-7.33-5.62-11.17-1-2.5-2.28-3-4.8-2.63a60.6,60.6,0,0,1-28.44-2.55c-17.12-5.59-29.25-17.2-38.37-32.22a21.19,21.19,0,0,1,3.8-26.68,20.8,20.8,0,0,1,26.54-1.66c3.6,2.72,6.3,6.71,9.09,10.37,6.77,8.9,16.12,12.55,25.12,9.81,3.67-1.12,5.77-3.13,5.84-6.5-7.65-4.26-15.31-7.93-22.39-12.54-13-8.44-23-19.64-28.88-34.18-8.51-21.27-7.46-42.68.26-63.92a8.45,8.45,0,0,0-.69-8.13C54.44,96,52,73.62,58.5,50.13,60.88,41.5,67.77,36,76.68,35.25a26.64,26.64,0,0,0,3-.56H92.56a10,10,0,0,0,1.61.49,84.73,84.73,0,0,1,46.38,19.73c.92.77,2.92.79,4.26.47,7.57-1.78,15-4.33,22.65-5.61a156.3,156.3,0,0,1,76.32,5.57,5.24,5.24,0,0,0,5.76-1.08A79.28,79.28,0,0,1,282.1,37.53c4.69-1.14,9.5-1.9,14.26-2.84ZM128.79,239.1c-8.95,20.29-3.81,47.15,12.76,64,20.66,21,45.77,27.13,73.83,19.52,29.78-8.07,51.05-34.7,49.06-65.81a50.54,50.54,0,0,0-4.25-18c-5.24,1.33-10.14,2.72-15.1,3.8-21.72,4.71-43.73,5.48-65.84,4.62-1.11,0-2.64,0-3.21-.72-1.21-1.42-2.68-3.3-2.61-4.93.06-1.47,1.81-3.18,3.23-4.17,1-.66,2.63-.34,4-.3,17.86.63,35.73.19,53.46-2.73,19.71-3.25,38.52-9.08,55-20.82,15.82-11.26,25.61-26.43,27.64-45.9,3.07-29.59-7.76-54.17-28.76-74.42C267.35,73.29,242.17,62.61,213.88,59c-33.56-4.26-65.25,1.36-94,19.57-28.19,17.86-46.2,42.54-48,77.05-.74,13.89,2.26,27,9.78,38.83,9.15,14.41,22.45,23.92,38.07,29.85,10.92,4.14,22.47,6.64,33.76,9.81,4,1.11,5.75,3,5.16,6.21s-3.1,4.55-7.12,3.71C144,242.49,136.49,240.79,128.79,239.1ZM334.41,229a5.56,5.56,0,0,0-.35,1.39v44.09c0,2.91,1.6,3.53,4.16,3.51,11.06-.07,22.16,0,33.24,0,4,0,4.41-.42,4.41-4.56V232c0-1-.12-2-.19-3ZM114.17,252.8a5.43,5.43,0,0,0-1.14,0c-8.93,1.85-17.31.23-24.25-5.53-4.87-4.05-8.92-9.16-13-14.07s-10.26-6.33-15.31-3a11.06,11.06,0,0,0-3.34,15.23c6.61,10.85,15.05,19.79,26.7,25.24A51.37,51.37,0,0,0,115.15,275c-.37-7.46-.65-14.64-1-22.21ZM74.61,110.21C82,97.45,91.7,87.05,103,77.79,92.08,69,79.9,63.77,66.37,60.71,63.63,78.25,65.84,94.53,74.61,110.21Zm248-49.55c-13.53,3.19-25.74,8.35-35,15.93,4.77,5.42,9.63,10.67,14.15,16.17s8.6,11.17,13,16.92C323.23,94.45,325.45,78.25,322.65,60.66ZM159.8,329.08c0,5.36.16,10.78,0,16.16s-1.08,10.82-1.13,16.23a11,11,0,0,0,10.21,10.8c5.44.48,11-3.16,11.67-8.69,1.15-9.35,1.55-18.86,2.23-27.88ZM65.58,311.35c2.94,2.61,5.87,4.79,8.31,7.43,10.83,11.67,24.45,15.2,39.75,14,11.59-.93,21-5.61,27.23-16l-6.64-6.28c-4.17,3.49-7.57,7.53-11.91,9.74-11.23,5.73-28.78,2.68-38.11-5.82-2.68-2.45-5.24-5-8-7.34-2.37-2-5-3.69-7.56-5.6C67.49,305.12,66.53,308.24,65.58,311.35ZM130.74,60.56c-.21-.33-.28-.57-.44-.69q-24.17-17.94-54-14.28a8.69,8.69,0,0,0-6.9,4.95,6.37,6.37,0,0,0,1,.51c14.68,3.65,28.13,9.83,39.92,19.44a2.9,2.9,0,0,0,2.61.17C118.85,67.4,124.7,64,130.74,60.56Zm127.39-.09c5.9,3.35,11.63,6.44,17.18,9.83,1.84,1.12,2.93.77,4.4-.42a92.66,92.66,0,0,1,35.18-17.7c1.57-.4,3.1-1,4.85-1.52a9.63,9.63,0,0,0-7.8-5.21,73,73,0,0,0-35.32,4.43,62.55,62.55,0,0,0-18.49,10.59Zm40.68,195.69c-7.22,6.51-13.94,12.94-23.44,7-1.51,7.66-2.94,14.89-4.38,22.21,13.18,6.31,31.84.32,41.82-12.61-9.78-1.18-13.67-5-14-16.6ZM323.7,240.4c-4.18,0-8-.13-11.81.1a3.39,3.39,0,0,0-2.43,2.07c-.26.92.31,2.88.94,3.08,5.71,1.83,9.73,5.68,13.3,11.27ZM58.63,297.59a35.12,35.12,0,0,0-5.5-.74c-2.77.06-4.3,1.83-4.65,4.47s1.78,4.84,5.1,5.7,3.09-1.82,3.69-3.5A54.73,54.73,0,0,0,58.63,297.59Zm251.16-41.31c-1,5.5-.08,6.44,5.11,5.42Z" transform="translate(-38.17 -34.69)"/><path class="cls-1" d="M79.64,34.69a26.64,26.64,0,0,1-3,.56c-8.91.77-15.8,6.28-18.18,14.88C52,73.62,54.44,96.07,67,117.11a8.4,8.4,0,0,1,.69,8.13c-7.72,21.28-8.8,42.61-.26,63.92,5.84,14.54,15.91,25.74,28.93,34.2,7.06,4.61,14.73,8.3,22.39,12.54-.07,3.41-2.17,5.39-5.84,6.5-9,2.74-18.35-.91-25.12-9.81-2.79-3.66-5.49-7.65-9.09-10.36a20.8,20.8,0,0,0-26.54,1.66,21.17,21.17,0,0,0-3.8,26.67c9.12,15,21.27,26.63,38.37,32.22a60.48,60.48,0,0,0,28.44,2.55c2.55-.39,3.77.13,4.8,2.63,1.58,3.85,3.87,7.4,5.62,11.17a4.87,4.87,0,0,1,0,3.6c-3.13,7.13-8.68,10-16.48,10-8.61,0-15.55-2.74-21.46-9a57.18,57.18,0,0,0-26-15.9c-9.36-2.7-19.1-1.86-23.36,11.12V34.69Z" transform="translate(-38.17 -34.69)"/><path class="cls-3" d="M296.36,34.69c-4.76.94-9.57,1.7-14.26,2.84a79.28,79.28,0,0,0-32.56,16.73,5.24,5.24,0,0,1-5.76,1.08,156.3,156.3,0,0,0-76.32-5.57c-7.66,1.28-15.08,3.83-22.65,5.61-1.34.32-3.34.3-4.26-.47A84.73,84.73,0,0,0,94.17,35.18a10,10,0,0,1-1.61-.49Z" transform="translate(-38.17 -34.69)"/><path class="cls-4" d="M337.9,203.15c1-4.5,2-9,2.81-13.52a72.58,72.58,0,0,0,1.13-10c.12-3.36,1.44-5.49,4.26-5.91a4.85,4.85,0,0,1,5.67,3.82,5,5,0,0,1,.09.95,46.37,46.37,0,0,1-.79,11.7c-1.24,5.74-2.93,11.31-2.46,17.31a4.87,4.87,0,0,1-4.17,5.47,4.38,4.38,0,0,1-.51,0,5.17,5.17,0,0,1-5.3-4.7c-.24-1.7-.21-3.41-.29-5.11Z" transform="translate(-38.17 -34.69)"/><path class="cls-4" d="M365.59,180.91c0-.57-.13-1.13-.14-1.71-.08-3.11,1.52-5.24,4.26-5.49,3.08-.29,5.27,1.21,5.48,4.25a43.59,43.59,0,0,1-.37,11.35c-1.19,6.07-3.32,11.91-2.62,18.29a5,5,0,0,1-4.45,5.43l-.39,0c-2.8.08-4.76-1.94-5.21-5.11-.94-6.66.66-13,2.32-19.33.65-2.48,1-5,1.48-7.56Z" transform="translate(-38.17 -34.69)"/><path class="cls-1" d="M128.79,239.1c7.66,1.7,15.19,3.4,22.69,5,4,.85,6.54-.55,7.12-3.7s-1.14-5.11-5.16-6.22c-11.29-3.17-22.84-5.67-33.76-9.81-15.62-6-28.93-15.43-38.07-29.85-7.52-11.84-10.52-24.93-9.78-38.83,1.85-34.47,19.86-59.16,48.05-77,28.75-18.24,60.41-23.82,94-19.57,28.29,3.59,53.47,14.29,74.12,34.23,21,20.26,31.83,44.83,28.76,74.42-2,19.44-11.82,34.61-27.64,45.87-16.48,11.74-35.29,17.57-55,20.82-17.71,2.92-35.56,3.36-53.47,2.73-1.35,0-3-.36-4,.3-1.42,1-3.17,2.7-3.23,4.17-.07,1.63,1.39,3.51,2.61,4.93.57.67,2.1.68,3.21.72,22.12.86,44.12.09,65.83-4.62,5-1.08,9.87-2.47,15.11-3.8a50.54,50.54,0,0,1,4.25,18c2,31.11-19.31,57.74-49.06,65.81-28.07,7.61-53.17,1.51-73.83-19.52C125,286.25,119.84,259.39,128.79,239.1Zm110.37-96.89c-2.49-.49-4.44-.91-6.4-1.26-3.06-.54-5.62,1-6.26,3.79a5,5,0,0,0,3.77,5.95,51.64,51.64,0,0,0,27.14,0,4.91,4.91,0,0,0,3.72-5.87,4.05,4.05,0,0,0-.12-.47c-.72-2.55-3.2-3.94-6.16-3.4-1.94.35-3.88.76-6.25,1.22V128.64a2.71,2.71,0,0,1,.85,0c1.7.3,3.33.64,5,1,3.4.67,5.95-.75,6.61-3.6s-.85-5.42-4.21-6.27a52.17,52.17,0,0,0-25.83,0c-3.4.85-5.1,3.33-4.53,6.11.64,3,3.33,4.46,6.86,3.77l5.82-1.09ZM150,128.44c1.63.31,3.59.65,5.55,1.05,3.6.74,6.31-.64,6.94-3.57s-1-5.41-4.63-6.31a52,52,0,0,0-25.53,0c-3.51.86-5.2,3.54-4.4,6.46.76,2.77,3.4,4.07,6.8,3.41,2-.4,4.09-.76,5.89-1.09-.2,2.55-.44,4.64-.53,6.8s0,4.45,0,7c-2.08-.42-4-.85-5.83-1.16-3.08-.58-5.68.91-6.34,3.61a5,5,0,0,0,3.55,6.08h0a51.57,51.57,0,0,0,27.45,0,5,5,0,0,0,3.49-6.09l0-.06a5.08,5.08,0,0,0-6-3.6c-2,.35-3.91.78-6.39,1.27Zm-33.38,33.23v.19h4.06c1.35,0,2.91.26,4.38.27,3.61,0,6-2,6.06-5,.06-2.84-2-5.16-5.57-5.05q-13.32.43-26.59,1.54c-3.57.3-5.51,3.09-4.92,6s3.18,4.44,6.8,4C106.13,162.94,111.38,162.31,116.64,161.67Zm-10.81,30c1.88-.76,3-1.12,3.94-1.6,7.39-3.57,14.74-7.21,22.12-10.72,3.26-1.54,4.62-3.8,3.63-6.6s-3.81-4.2-7.19-2.87c-5.23,2.06-10.42,4.26-15.48,6.72a43.17,43.17,0,0,0-9.13,5.59,6.58,6.58,0,0,0-1.78,5.49C102.29,189.32,104.57,190.48,105.83,191.69Zm167-30,15.7,2c3.4.41,5.95-1.2,6.41-4.06a5,5,0,0,0-3.82-5.86,6,6,0,0,0-.84-.1c-8.87-.75-17.77-1.31-26.67-1.59-3.78-.12-5.86,2.24-5.68,5.29s2.55,4.84,6.28,4.75C266.82,162.08,269.41,161.9,272.84,161.73Zm14.76,23.56c-.44-.66-1-2.6-2.28-3.24q-12.61-6.48-25.52-12.42c-2.61-1.19-4.91.18-6.14,2.76s0,5.21,2.56,6.51c8,3.93,16,7.86,24,11.7C283.77,192.3,287.5,190,287.6,185.29Zm-93-32.63c4,0,7.92.08,11.87,0,3.79-.1,6-2,6.09-5s-2.27-5.11-6.26-5.11q-11.69-.08-23.39,0c-4.16,0-6.3,1.77-6.35,5s2.2,5.1,6.52,5.2C186.93,152.72,190.78,152.67,194.62,152.66Z" transform="translate(-38.17 -34.69)"/><path class="cls-4" d="M334.41,229h41.23c.07,1.06.18,2.05.19,3v41.37c0,4.14-.4,4.54-4.41,4.55H338.18c-2.55,0-4.17-.59-4.16-3.5V230.34A6.25,6.25,0,0,1,334.41,229Z" transform="translate(-38.17 -34.69)"/><path class="cls-1" d="M114.17,252.82c.33,7.57.65,14.75,1,22.21a51.37,51.37,0,0,1-31.33-4.32c-11.65-5.45-20.09-14.39-26.72-25.21a11.05,11.05,0,0,1,3.33-15.23c5.11-3.36,11.26-2,15.32,3s8.13,10,13,14.07c6.93,5.76,15.31,7.39,24.25,5.53A5.62,5.62,0,0,1,114.17,252.82Z" transform="translate(-38.17 -34.69)"/><path class="cls-4" d="M74.61,110.21c-8.77-15.68-11-32-8.24-49.5C79.93,63.77,92.08,69,103,77.79,91.7,87.05,82,97.42,74.61,110.21Z" transform="translate(-38.17 -34.69)"/><path class="cls-4" d="M322.65,60.66c2.8,17.59.56,33.79-7.91,49-4.38-5.75-8.51-11.48-13-16.92S292.4,82,287.61,76.6C296.91,69,309.12,63.85,322.65,60.66Z" transform="translate(-38.17 -34.69)"/><path class="cls-1" d="M159.8,329.08l23,6.63c-.68,9-1.08,18.5-2.23,27.88-.68,5.53-6.23,9.17-11.67,8.69a11,11,0,0,1-10.21-10.8c.05-5.41.92-10.81,1.13-16.23S159.8,334.44,159.8,329.08Z" transform="translate(-38.17 -34.69)"/><path class="cls-1" d="M65.58,311.35c1-3.11,1.91-6.23,3-9.93,2.55,1.91,5.2,3.62,7.56,5.6,2.77,2.32,5.33,4.89,8,7.34,9.36,8.5,26.88,11.55,38.11,5.82,4.33-2.21,7.74-6.25,11.91-9.74l6.64,6.28c-6.21,10.44-15.62,15.12-27.23,16-15.31,1.21-28.92-2.32-39.75-14C71.45,316.14,68.52,314,65.58,311.35Z" transform="translate(-38.17 -34.69)"/><path class="cls-1" d="M130.74,60.56c-6,3.4-11.92,6.8-17.82,10.1a2.9,2.9,0,0,1-2.61-.17C98.52,60.88,85.07,54.7,70.39,51.05a6.37,6.37,0,0,1-1-.51,8.69,8.69,0,0,1,6.9-4.95,73,73,0,0,1,54,14.28C130.46,60,130.53,60.22,130.74,60.56Z" transform="translate(-38.17 -34.69)"/><path class="cls-1" d="M258.13,60.47a62.55,62.55,0,0,1,18.49-10.59,73,73,0,0,1,35.32-4.43,9.63,9.63,0,0,1,7.8,5.21c-1.75.55-3.28,1.12-4.85,1.52a92.66,92.66,0,0,0-35.18,17.7c-1.47,1.19-2.55,1.54-4.4.42C269.76,66.91,264,63.82,258.13,60.47Z" transform="translate(-38.17 -34.69)"/><path class="cls-1" d="M302,256.16c.33,11.56,4.25,15.42,14,16.63-10,12.93-28.64,18.92-41.82,12.61,1.44-7.32,2.87-14.59,4.38-22.21C288,269.1,294.75,262.68,302,256.16Z" transform="translate(-38.17 -34.69)"/><path class="cls-1" d="M323.7,240.44V257c-3.57-5.59-7.59-9.43-13.3-11.26-.63-.21-1.2-2.16-.94-3.08a3.38,3.38,0,0,1,2.43-2.08C315.7,240.3,319.52,240.44,323.7,240.44Z" transform="translate(-38.17 -34.69)"/><path class="cls-1" d="M58.63,297.59a52.86,52.86,0,0,1-1.33,6c-.59,1.7-.39,4.36-3.68,3.51s-5.5-3-5.11-5.7,1.88-4.42,4.66-4.48A34.73,34.73,0,0,1,58.63,297.59Z" transform="translate(-38.17 -34.69)"/><path class="cls-1" d="M309.79,256.28l5.11,5.42C309.71,262.71,308.83,261.78,309.79,256.28Z" transform="translate(-38.17 -34.69)"/><path class="cls-2" d="M239.16,142.21V128.43l-5.81,1.09c-3.54.69-6.22-.79-6.86-3.77-.58-2.78,1.15-5.27,4.53-6.11a52.13,52.13,0,0,1,25.82,0c3.41.85,4.87,3.27,4.22,6.27s-3.24,4.25-6.61,3.6c-1.66-.33-3.32-.67-5-1a2.69,2.69,0,0,0-.85,0v13.54l6.24-1.22c3-.53,5.45.85,6.16,3.4a4.92,4.92,0,0,1-3.13,6.21,3.62,3.62,0,0,1-.47.13,51.6,51.6,0,0,1-27.13,0,5,5,0,0,1-3.77-5.95c.64-2.76,3.2-4.34,6.26-3.79C234.75,141.3,236.67,141.72,239.16,142.21Z" transform="translate(-38.17 -34.69)"/><path class="cls-2" d="M150,128.44v13.75c2.49-.49,4.43-.92,6.39-1.26a5.07,5.07,0,0,1,6.06,3.59,5,5,0,0,1-3.4,6.13l-.07,0a51.61,51.61,0,0,1-27.46,0,5,5,0,0,1-3.59-6v0c.67-2.7,3.26-4.19,6.35-3.61,1.88.35,3.74.74,5.83,1.16,0-2.55-.07-4.74,0-7s.32-4.25.53-6.8c-1.81.33-3.85.69-5.89,1.09-3.4.66-6-.64-6.81-3.41-.8-2.92.85-5.58,4.41-6.45a52,52,0,0,1,25.52,0c3.65.9,5.28,3.27,4.63,6.31s-3.33,4.31-6.93,3.57C153.61,129.13,151.65,128.75,150,128.44Z" transform="translate(-38.17 -34.69)"/><path class="cls-2" d="M116.64,161.67c-5.26.64-10.51,1.27-15.76,2-3.61.48-6.2-1-6.81-4s1.36-5.71,4.93-6q13.27-1.09,26.59-1.55c3.51-.11,5.62,2.22,5.56,5.06-.06,3-2.45,5-6.05,5-1.47,0-2.92-.21-4.39-.26s-2.7,0-4,0Z" transform="translate(-38.17 -34.69)"/><path class="cls-2" d="M105.83,191.69c-1.28-1.21-3.54-2.37-3.93-4a6.55,6.55,0,0,1,1.78-5.49,43.06,43.06,0,0,1,9.21-5.59c5.06-2.44,10.21-4.66,15.47-6.72,3.41-1.33,6.16,0,7.19,2.87s-.36,5.11-3.62,6.6c-7.42,3.51-14.77,7.15-22.12,10.72C108.78,190.57,107.71,190.93,105.83,191.69Z" transform="translate(-38.17 -34.69)"/><path class="cls-2" d="M272.84,161.73c-3.4.17-6,.35-8.62.41-3.69.1-6.12-1.77-6.28-4.74s1.9-5.41,5.68-5.3c8.9.29,17.8.86,26.67,1.6a4.94,4.94,0,0,1,4.77,5.11,4.71,4.71,0,0,1-.11.84c-.47,2.86-3,4.48-6.41,4.06Z" transform="translate(-38.17 -34.69)"/><path class="cls-2" d="M287.6,185.29c-.1,4.72-3.83,7-7.34,5.31-8-3.84-16-7.77-24-11.7-2.62-1.3-3.74-4.05-2.55-6.51s3.53-3.95,6.13-2.76q12.89,5.91,25.53,12.42C286.57,182.73,287.16,184.65,287.6,185.29Z" transform="translate(-38.17 -34.69)"/><path class="cls-2" d="M194.62,152.66c-3.84,0-7.65.06-11.52,0-4.32-.08-6.57-1.92-6.52-5.21s2.19-4.93,6.35-4.95q11.69-.08,23.39,0c4,0,6.32,2,6.26,5.1s-2.3,4.92-6.09,5C202.54,152.74,198.58,152.66,194.62,152.66Z" transform="translate(-38.17 -34.69)"/><ellipse class="cls-5" cx="107.05" cy="129.04" rx="23.75" ry="22.45"/><ellipse class="cls-5" cx="205.63" cy="129.04" rx="23.75" ry="22.45"/></svg>