<svg id="Calque_1" data-name="Calque 1" xmlns="http://www.w3.org/2000/svg" viewBox="0 0 377.87 408.78"><defs><style>.cls-1{fill:#282f64;}.cls-2{fill:#d787ba;}.cls-3{fill:none;}.cls-4{fill:#fff;}</style></defs><path class="cls-1" d="M221.17,0c6,2.08,12.41,3.36,17.84,6.41C253.75,14.68,260.8,28,261.82,44.68c0,.67,0,1.33.06,2,.26,3.92,1.59,4.81,5.41,4.09,4.53-.85,9.09-1.64,13.68-2.1a7.32,7.32,0,0,1,4.91,1.25c3.38,2.72,6.34,1.71,9.86.28a84,84,0,0,1,43.79-5.58c8.85,1.24,15,6.35,17.51,14.88,7.14,24,4.83,47.07-7.49,68.92-2.1,3.71-2.81,6.64-1.28,10.92,7.4,20.65,8.4,41.54.86,62.45-5.55,15.39-15.41,27.58-28.67,36.86-6.39,4.47-13.51,7.88-20.3,11.77a4.91,4.91,0,0,0-1.77,1.46c10.72,0,21.17.38,28.91-9.7,7.16-9.32,21.56-10,30.89-2.56a22.79,22.79,0,0,1,4.09,31.45c-11.22,15.56-27.08,23.07-45.49,25.82-6.41,1-13,1-19.64,1.49L291.52,313c4.61-1.09,8.39-1.88,12.11-2.88,10.63-2.87,21.1-6.46,31.87-8.59a67.19,67.19,0,0,1,49.5,8.75c7.79,4.74,10.55,13.85,6.56,21.79-3.82,7.58-13.38,12-20.6,7.73-16.94-10.05-33.49-6.16-50.33-.6-5.92,2-11.8,4.21-17.87,5.52a45.05,45.05,0,0,1-30.59-4.29c-.71-.36-1.43-.69-2.17-1-.22-.09-.51,0-1.3.09.46,3,1,5.89,1.34,8.84.74,6.2,1.45,12.41,2,18.63.39,4.28-1.8,7.2-5.35,7.51s-6.07-2-6.51-6.41c-.37-3.57-.56-7.17-1-10.73s-1-6.79-1.54-10.31l-20.59,7.87c.37,4.24.9,8.7,1.11,13.19.27,5.71.24,11.43.39,17.14s2.74,9.38,7.55,11c4.6,1.52,8.94-.1,12.48-4.65.16-.21.3-.44.47-.65,2.58-3.23,5.81-3.95,8.65-1.93s3.18,5.36,1.09,8.88a22.7,22.7,0,0,1-30,8.2c-7.55-4.15-11.78-10.58-12.08-19.3-.19-5.45,0-10.92-.3-16.36-.21-4.38-.83-8.74-1.33-13.69H201.27c-.72,2.48-1.55,5.52-2.48,8.53-3,9.86-9.64,15.55-19.88,17.2a4.86,4.86,0,0,0-3.06,2.65c-1.12,2.83-1.63,5.88-2.6,8.78-1.21,3.62-4.2,5.29-7.39,4.36s-4.8-3.84-4-7.6c.67-3,1.81-5.86,2.29-8.86a5,5,0,0,0-1.37-3.9c-8-6.71-10.51-15.06-8-25,1.14-4.51,2.57-8.94,3.63-13.46.29-1.23.21-3.2-.55-3.91a83.19,83.19,0,0,1-19.32-26.25c-6.18,1.89-11.92,3.95-17.82,5.37-10.47,2.53-20.84,1.5-31.08-1.67a10.69,10.69,0,0,0-5.35-.41c-10.44,2.57-18.94-2.13-21.9-12.46-1.78-6.25-3.36-12.55-5.16-19.28l-8.91,2.26c-8.17,2.07-13.4-.93-15.75-9.05-.7-2.42-1.42-4.84-2-7.3-1.57-6.75,1.66-12.29,8.24-14.3,2.66-.8,5.37-1.45,8.61-2.32-.64-1.37-1.14-2.51-1.7-3.62-5.51-10.91-11.33-21.68-16.49-32.75C13.53,180,11.56,145.22,22,109.62c1.89-6.5,6.3-10,12.27-10s10.34,3.54,12.23,10.54Q59.69,159,72.74,207.91c2.92,10.89,5.86,21.78,8.85,32.9,8.54-1.26,18.76-8.08,23.63,4.23,4.71,11.91,6.13,16.58-2.37,23.27,7.65,5,31-5.72,33.46-15.16-7-3.84-14.25-7.25-20.93-11.52-21.75-13.93-34.89-33.55-37.56-59.51a91.72,91.72,0,0,1,5.8-43.47,9.08,9.08,0,0,0-.76-8.86c-13-22-15.47-45.49-8.46-69.93,2.49-8.67,8.64-14,17.66-15.23a85.07,85.07,0,0,1,45.65,6.3c2.35,1,4.16,1.25,6.59-.29,5.07-3.23,10.66-2.47,16.19-1,8.92,2.42,9,2.32,9.49-7,1-20.47,16-37.42,37-41.82,1-.22,2-.57,3-.85Zm19.69,144.41c-1-.22-2-.52-3-.68-41.12-6.43-81.15-16.68-119.15-34.08a4.31,4.31,0,0,0-3.91.66C98.5,128,89.33,148.71,89.34,173c0,22.3,8.67,40.46,26.35,54.22,14.15,11,30.48,17.07,47.72,21.06,3.36.78,6.79,1.37,10.06,2.43a5.24,5.24,0,0,1,3.65,6.31,5.51,5.51,0,0,1-5.85,4.91,16.31,16.31,0,0,1-3.54-.48c-6.55-1.47-13.09-3-19.57-4.47-9,20.74-3.22,48.16,13.48,65.34,22.9,23.56,58.87,29.92,88.16,14.73,25.2-13.05,38.78-33.76,37.52-62.8-.25-5.82-2.05-11.57-3.13-17.34-1.58.14-2.1.15-2.61.24-14,2.51-27.86,5.9-41.93,7.28-13.58,1.33-27.35.67-41,.7-3.38,0-5.36-2.14-5.59-5.57s1.88-5.71,5.48-6.12a40.06,40.06,0,0,1,6,0c26.48,1,52.61-1.05,78-9.16,15-4.78,28.79-11.8,40.14-22.91,13.69-13.4,19.6-30.09,19.69-48.94a72.19,72.19,0,0,0-4-25.27c-7.76.45-15.18,1.05-22.61,1.27s-15.08,0-22.27,0c-1.21,5.86-2.3,11.12-3.31,16,7.8.74,15.86,1.36,23.87,2.35,4.93.61,7.14,3.46,6.4,7.33-.68,3.6-3.73,5-8.44,4.47-7-.73-14-1.26-21-1.48-3.9-.12-7.77.42-10-3.59-17.87,11-43.52-1.83-40.15-29.1ZM215.69,91.66h39.88c9.08,0,16.73-3.16,21.88-10.85a79.38,79.38,0,0,0,6.35-11.94c2.24-5-1.18-9.17-6.65-8.24-2.87.48-5.66,1.45-8.51,2.07A14.81,14.81,0,0,1,253.84,58c-3.55-3.81-3.88-8.51-4-13.39-.39-13.47-8.94-25.82-21.16-30.13-14-4.94-26.75-2.8-37.5,7.81-7.36,7.27-9.25,16.65-9.81,26.61s-9,15.88-18.74,13.75c-3-.66-5.9-1.68-8.9-2.12-4.74-.7-7.91,3.36-6.15,7.82,1.07,2.71,2.56,5.24,3.83,7.87,5.07,10.6,13.56,15.54,25.21,15.48C189.63,91.61,202.66,91.66,215.69,91.66Zm-90.13,7.81c2.09,1,3.26,1.54,4.46,2.07,34.83,15.15,71.32,24.33,108.72,30.28a5.58,5.58,0,0,0,5.76-2.11,12.49,12.49,0,0,1,5.43-3.08,53.53,53.53,0,0,1,25.59-1.93c7.38,1.28,15.53,2,17,11.1h41.6c-10.6-21.73-26.34-37-46.8-48.54a9.67,9.67,0,0,1-.77,1.46c-7.72,10.19-18.16,14.87-30.74,14.9q-40.12.1-80.23,0c-9.2,0-17.57-2.62-24.7-8.64-2.61-2.2-5.19-4.44-8.23-7ZM70,244c-11.9-44.38-23.66-88.28-35.43-132.17a127.37,127.37,0,0,0-.8,80.89c6,19,16.53,35.89,25.44,53.53.09.19.44.25.89.48Zm229.76,42.27c5.54-.44,11-.5,16.31-1.38,14.46-2.39,27.19-8.09,36.15-20.36,3.93-5.4,3.32-11.84-1.51-15.64s-11.37-3.1-15.47,2.25a30.26,30.26,0,0,1-19,11.43c-5.81,1.11-11.75,1.52-17.49,2.22.31,6.84.64,13.71,1,21.52ZM83.76,72.32c-2.88,17.33-.48,33.27,7.18,47.7l27.91-31.55A89.39,89.39,0,0,0,83.78,72.36Zm229,16.11L340.63,120c7.64-14.6,10.08-30.48,7.15-47.62a87.4,87.4,0,0,0-35,16.07ZM95,301.89c13.47,4,25.86,1.74,37.84-4a2.6,2.6,0,0,0,1.14-2.1c-.82-7.16-1.78-14.3-2.74-21.73-12.58,8.25-25.61,11.59-39.75,2.38C92.51,285.32,97.46,292.91,95,301.89Zm269.1,11.19c-7.85-.16-14.88-1.36-21.51-.22a303.19,303.19,0,0,0-33.88,8.3c-7.35,2.14-14.45,4.44-22.19,2.4a3.36,3.36,0,0,0-2.71.94c-1.7,1.75-3.16,3.75-5,6,1.87.68,3.2,1.22,4.57,1.67,9.22,3,18.05.9,26.87-2,7.31-2.37,14.61-4.81,22-6.77a64,64,0,0,1,27.37-1.14Zm-111-174.85V143a98.78,98.78,0,0,0,.17,10.33,13.72,13.72,0,0,0,13.83,12.25,13.3,13.3,0,0,0,13.34-12.63,110,110,0,0,0,.08-12.71,3.65,3.65,0,0,0-2.12-2.65,43,43,0,0,0-25.33.65Zm-166-78.67.31,1.13c1.75.53,3.5,1.09,5.26,1.6a102.32,102.32,0,0,1,31.08,14.79c6.69,4.77,6.71,4.75,13.66.09.19-.13.27-.43-.1.19-.87-4.84-1.53-9-2.4-13a3.42,3.42,0,0,0-1.71-2.17A74,74,0,0,0,94,56.51C91.59,56.8,89.39,58.51,87.12,59.56Zm256.75,1,.44-1.17c-2.33-1-4.58-2.63-7-2.92a74.74,74.74,0,0,0-39,5.69c-.74.32-1.69,1-1.82,1.72-.83,4.34-1.45,8.72-2.19,13.43A18.37,18.37,0,0,1,296.83,79c3.23,2.82,5.7,2.09,9.21-.33a160.32,160.32,0,0,1,21-12c5.37-2.64,11.22-4.12,16.83-6.1ZM42.3,263.94l2.1,7.77,52.17-14L94.44,250Zm127.27,80.63c-1.17,4.16-2.3,8.09-3.38,12a11.83,11.83,0,0,0-.3,2.37,10.61,10.61,0,0,0,7.42,11c4.61,1.51,10.24-.28,12.39-4.63,1.82-3.71,2.78-7.84,4.07-11.64Zm-100.72-67c1.91,7.07,3.6,13.72,5.53,20.29a4.45,4.45,0,0,0,5.33,3.35l.26-.07c2.74-.57,4.34-2.56,3.75-5.21-1.56-6.91-3.51-13.73-5.38-20.85Zm301.51,49.74c3.43.51,6,1.31,8.5,1.06.94-.09,2.64-3.06,2.25-3.92-1-2.28-3-4.11-5.19-6.81Z" transform="translate(-15.51 0.03)"/><path class="cls-2" d="M215.69,91.66H176.6c-11.65.06-20.14-4.88-25.21-15.48-1.27-2.63-2.76-5.16-3.83-7.87-1.76-4.46,1.41-8.52,6.15-7.82,3,.44,5.92,1.46,8.9,2.12,9.7,2.13,18.18-3.87,18.74-13.75s2.45-19.34,9.81-26.61c10.75-10.61,23.53-12.75,37.5-7.81,12.22,4.31,20.77,16.66,21.16,30.13.14,4.88.47,9.58,4,13.39a14.81,14.81,0,0,0,14.8,4.72c2.85-.62,5.64-1.59,8.51-2.07,5.47-.93,8.89,3.24,6.65,8.24a79.38,79.38,0,0,1-6.35,11.94c-5.15,7.69-12.8,10.85-21.88,10.85Zm8-41c2.77-2.57,5-4.45,7-6.56,3-3.19,3.12-6.62.48-9.14-2.42-2.31-5.93-2.14-8.86.7-2.16,2.08-4.07,4.42-6.7,7.31-2.57-2.92-4.36-5.24-6.44-7.27-3-2.94-6.79-3.06-9.17-.53s-2.14,6,.74,8.87c2.14,2.13,4.62,3.91,7.6,6.37-3.21,2.86-5.5,4.68-7.54,6.76-3,3.07-3.16,6.7-.6,9.14s5.92,2.27,8.86-.6c2.17-2.12,4-4.58,6.57-7.57,2.74,3.09,4.63,5.49,6.8,7.6,2.95,2.86,6.38,2.94,8.83.5s2.44-5.84-.4-8.84c-2-2.23-4.37-4.19-7.13-6.75Z" transform="translate(-15.51 0.03)"/><path class="cls-3" d="M125.56,99.47l17.09-11.53c3,2.6,5.62,4.84,8.23,7,7.13,6,15.5,8.62,24.7,8.64q40.11.08,80.23,0c12.58,0,23-4.71,30.74-14.9a9.67,9.67,0,0,0,.77-1.46c20.46,11.58,36.2,26.81,46.8,48.54h-41.6c-1.47-9.07-9.62-9.82-17-11.1a53.53,53.53,0,0,0-25.59,1.93,12.49,12.49,0,0,0-5.43,3.08,5.58,5.58,0,0,1-5.76,2.11c-37.4-6-73.89-15.13-108.72-30.28C128.82,101,127.65,100.44,125.56,99.47Z" transform="translate(-15.51 0.03)"/><path class="cls-3" d="M70,244l-9.9,2.73c-.45-.23-.8-.29-.89-.48-8.91-17.64-19.46-34.53-25.44-53.53a127.37,127.37,0,0,1,.8-80.89C46.34,155.76,58.1,199.66,70,244Z" transform="translate(-15.51 0.03)"/><path class="cls-3" d="M299.76,286.31c-.37-7.81-.7-14.68-1-21.48,5.74-.7,11.68-1.11,17.49-2.22a30.26,30.26,0,0,0,19-11.43c4.1-5.35,10.63-6.07,15.47-2.25s5.44,10.24,1.51,15.64c-9,12.27-21.69,18-36.15,20.36C310.75,285.81,305.3,285.87,299.76,286.31Z" transform="translate(-15.51 0.03)"/><path class="cls-3" d="M83.78,72.36a89.49,89.49,0,0,1,35.09,16.15L91,120.06C83.3,105.63,80.9,89.69,83.78,72.36Z" transform="translate(-15.51 0.03)"/><path class="cls-3" d="M312.73,88.47a87.4,87.4,0,0,1,35-16c2.93,17.14.49,33-7.15,47.62Z" transform="translate(-15.51 0.03)"/><path class="cls-3" d="M95,301.89c2.45-9-2.5-16.57-3.51-25.42,14.14,9.21,27.17,5.87,39.75-2.38,1,7.43,1.92,14.57,2.74,21.73a2.6,2.6,0,0,1-1.14,2.1C120.87,303.63,108.48,305.86,95,301.89Z" transform="translate(-15.51 0.03)"/><path class="cls-3" d="M364.1,313.08l-4.45,9.22a64,64,0,0,0-27.37,1.14c-7.42,2-14.72,4.4-22,6.77-8.82,2.86-17.65,5-26.87,2-1.37-.45-2.7-1-4.57-1.67,1.84-2.25,3.3-4.25,5-6a3.36,3.36,0,0,1,2.71-.94c7.74,2,14.84-.26,22.19-2.4a303.19,303.19,0,0,1,33.88-8.3C349.22,311.72,356.25,312.92,364.1,313.08Z" transform="translate(-15.51 0.03)"/><path class="cls-2" d="M253.07,138.23a43,43,0,0,1,25.3-.65,3.65,3.65,0,0,1,2.12,2.65,110,110,0,0,1-.08,12.71,13.3,13.3,0,0,1-13.34,12.63,13.72,13.72,0,0,1-13.83-12.25c-.36-3.41-.14-6.89-.17-10.33C253.05,141.41,253.07,139.84,253.07,138.23Z" transform="translate(-15.51 0.03)"/><path class="cls-3" d="M87.12,59.56c2.27-1,4.47-2.76,6.84-3a74.05,74.05,0,0,1,39.26,5.66,3.42,3.42,0,0,1,1.71,2.17c.87,4.07,1.53,8.18,2.4,13,.37-.62.29-.32.1-.19-7,4.66-7,4.68-13.66-.09A102.32,102.32,0,0,0,92.69,62.32c-1.76-.51-3.51-1.07-5.26-1.6Z" transform="translate(-15.51 0.03)"/><path class="cls-3" d="M343.87,60.54c-5.61,2-11.46,3.47-16.78,6a160.32,160.32,0,0,0-21,12c-3.51,2.42-6,3.15-9.21.33a18.37,18.37,0,0,0-2.53-1.66c.74-4.71,1.36-9.09,2.19-13.43.13-.67,1.08-1.4,1.82-1.72a74.74,74.74,0,0,1,39-5.69c2.42.29,4.67,1.91,7,2.92Z" transform="translate(-15.51 0.03)"/><path class="cls-2" d="M42.3,263.94l52.14-14,2.13,7.76-52.17,14Z" transform="translate(-15.51 0.03)"/><path class="cls-4" d="M169.57,344.57l20.2,9.11c-1.29,3.8-2.25,7.93-4.07,11.64-2.15,4.35-7.78,6.14-12.39,4.63a10.61,10.61,0,0,1-7.42-11,11.83,11.83,0,0,1,.3-2.37C167.27,352.66,168.4,348.73,169.57,344.57Z" transform="translate(-15.51 0.03)"/><path class="cls-2" d="M68.85,277.59l9.49-2.49c1.87,7.12,3.82,13.94,5.38,20.85.59,2.65-1,4.64-3.75,5.21a4.45,4.45,0,0,1-5.52-3,2.5,2.5,0,0,1-.07-.26C72.45,291.31,70.76,284.66,68.85,277.59Z" transform="translate(-15.51 0.03)"/><path class="cls-3" d="M370.36,327.33l5.56-9.67c2.16,2.7,4.16,4.53,5.19,6.81.39.86-1.31,3.83-2.25,3.92C376.38,328.64,373.79,327.84,370.36,327.33Z" transform="translate(-15.51 0.03)"/><path class="cls-1" d="M216.34,168.55a23.86,23.86,0,0,1-17.66-7.27c-2.83-2.85-3-6.31-.56-8.84,2.27-2.35,5.56-2.32,8.57.08,7,5.59,11.25,5.61,18.05.07,3.12-2.54,6.59-2.53,8.88,0s1.91,5.94-1,8.85A23.15,23.15,0,0,1,216.34,168.55Z" transform="translate(-15.51 0.03)"/><path class="cls-1" d="M136.51,176.69c-5.78.67-11.57,1.28-17.34,2-4.5.58-7.61-1.22-8.12-4.9-.49-3.5,1.76-6.48,6.07-6.85q13.62-1.19,27.3-1.61c4-.13,6.53,2.69,6.41,6.07s-2.74,5.71-6.73,5.78c-1.32,0-2.65-.09-4-.11s-2.39,0-3.58,0Z" transform="translate(-15.51 0.03)"/><path class="cls-1" d="M312.9,200c.12,5.55-4.4,8.57-8.4,6.69-8.5-4-16.95-8.17-25.38-12.34-2.94-1.45-3.82-4-2.88-7s3.14-4.17,6.16-3.91a7.6,7.6,0,0,1,2.7.62c8.12,3.9,16.28,7.73,24.25,11.92C311.11,196.88,312.17,199.14,312.9,200Z" transform="translate(-15.51 0.03)"/><path class="cls-1" d="M123.7,207.71c-1.33-1.2-3.87-2.44-4.42-4.28s.14-5.28,1.55-6.33a83.13,83.13,0,0,1,27.71-13.57c3.21-.89,5.85.67,6.86,3.93.95,3-.23,5.55-3.1,7-8.42,4.17-16.89,8.26-25.36,12.35A25.91,25.91,0,0,1,123.7,207.71Z" transform="translate(-15.51 0.03)"/><path class="cls-1" d="M158.9,151.73a34.23,34.23,0,0,1,0-4.75,5.37,5.37,0,0,1,5.19-5.08c3.19-.28,5.73,1.17,6.14,4.3a44.31,44.31,0,0,1,0,11.39c-.4,3.13-3,4.69-6.11,4.38a5.53,5.53,0,0,1-5.27-5.49c-.14-1.57,0-3.17,0-4.75Z" transform="translate(-15.51 0.03)"/><path class="cls-1" d="M223.73,50.65c2.76,2.56,5.11,4.52,7.2,6.74,2.84,3,2.89,6.36.4,8.84s-5.88,2.36-8.83-.5c-2.17-2.11-4.06-4.51-6.8-7.6-2.56,3-4.4,5.45-6.57,7.57-2.94,2.87-6.38,3-8.86.6s-2.41-6.07.6-9.14c2-2.08,4.33-3.9,7.54-6.76-3-2.46-5.46-4.24-7.6-6.37-2.88-2.86-3-6.43-.74-8.87s6.17-2.41,9.17.53c2.08,2,3.87,4.35,6.44,7.27,2.63-2.89,4.54-5.23,6.7-7.31,2.93-2.84,6.44-3,8.86-.7,2.64,2.52,2.54,6-.48,9.14C228.75,46.2,226.5,48.08,223.73,50.65Z" transform="translate(-15.51 0.03)"/></svg>