<svg id="Calque_1" data-name="Calque 1" xmlns="http://www.w3.org/2000/svg" viewBox="0 0 409.6 409.6"><defs><style>.cls-1{fill:none;}.cls-2{fill:#282f64;}.cls-3{fill:#d787ba;}.cls-4{fill:#fff;}</style></defs><path class="cls-1" d="M0,59.08V0H409.6V409.6H0V63.08c1.66,2.85,3.81,4.46,7.44,4,5.64-.71,11.33-1.13,17-1.47,3.42-.21,5.54-1.68,6-5.12s-1.3-6.11-5-6.36A137.12,137.12,0,0,0,10,54.35,13,13,0,0,0,0,59.08ZM333.19,193.17c2.88-7.72,6.37-15.1,8.38-22.88,4.64-17.95,3.33-35.85-2.27-53.46-.65-2-1.06-3.46,1.3-5,8.31-5.29,11-13.42,7.67-22.77a13,13,0,0,1-.19-8.44,91.18,91.18,0,0,0-.52-50.76c-2.85-9.74-10.09-15.55-20.23-16.53C301.61,10.85,278.64,17.6,258.62,34c-2.08,1.7-3.85,1.87-6.48,1.28-12.93-2.9-25.84-6.5-39-7.87a158,158,0,0,0-67.63,7.69c-3,1-5.09.5-7.52-1.47C117.88,17.32,94.85,10.76,69.15,13.38A22.28,22.28,0,0,0,49.57,29.69a93.81,93.81,0,0,0-.37,52,12.25,12.25,0,0,1-.36,6.76c-3.23,9.72-.71,18,7.84,23.58,1.91,1.25,1.85,2.42,1.37,4.28-1.49,5.91-3.33,11.8-4.11,17.82-4.72,36.24,7.08,65.44,37.87,86,6.9,4.61,14.49,8.19,22.24,12.52a42.21,42.21,0,0,1-19.1-.51c-9-2.5-14.72-9-20-16.21-7.63-10.45-21.45-13-31.89-6.2A23.47,23.47,0,0,0,35.53,242C46.84,260.88,63,273.71,84.68,278.52c9.25,2.06,18.88,2.42,28.78,3.61,2,4.78,4.28,10.4,6.58,16-6.39,3.82-10.74,3.61-16.62-.66-4.19-3-8.22-6.36-12.67-9-20.85-12.24-47.57-7.09-61.51,11.78a40,40,0,0,0-7.82,25,17,17,0,0,0,33.81,1.94c1.36-9.81,7.26-13.55,16.54-9.83,3.59,1.44,6.74,4.14,9.86,6.57,12.89,10.05,27.19,13.86,43,9.08,6.53-2,12.64-5.32,19.3-8.2,4.52,2.84,5,3.39,3.31,10.54-2.35,9.94-5.06,19.8-7.88,29.61-2.39,8.34-1.06,15.91,4.42,22.47a23.48,23.48,0,0,0,40.52-7.54c3.83-11.29,6.44-23,9.71-34.47.32-1.11,1.43-2.74,2.3-2.83,7.61-.78,15.25-1.28,22.9-1.86,0,2.49.37,5.19-.07,7.75-1.07,6.13-2.45,12.22-3.82,18.3a23.25,23.25,0,0,0,2.91,18A23.71,23.71,0,0,0,257.69,386c2.05-2.92,1.83-6.16-.55-8.29-2.54-2.28-5.72-2-8.49.69-.57.56-1.07,1.19-1.62,1.77a11.73,11.73,0,0,1-20.18-10.3c.23-1.3.8-2.55,1-3.86,1.25-8.77,2.6-17.54,3.52-26.35.24-2.33.91-3.35,3-4.36,5.58-2.76,11-5.88,16.46-8.86.86-.47,1.74-.91,3-1.59.36,4.39.9,8.22.94,12.06.06,6.1-.23,12.22-.34,18.33-.08,4.58,2.8,7.72,6.57,7.06,3.57-.63,5-3.1,5.31-6.52,1-12.24,1.2-24.44-1.78-36.47a6.48,6.48,0,0,1,1.44-6.49,132.13,132.13,0,0,0,9-12.14c1.3-1.94,2.43-2.64,4.81-1.93,18.74,5.59,37.25,4.69,55.52-2.21a22.34,22.34,0,0,1,2.68-.67,25.86,25.86,0,0,1-4.82,2.82c-5.83,3.12-9.48,9.95-7.7,16.07A146.89,146.89,0,0,0,333,335.28a14.22,14.22,0,0,0,17.8,7.54q24.45-8.52,48.65-17.75c7.44-2.86,10.86-10.4,8.59-18a178.25,178.25,0,0,0-6.6-18.35c-3-7-10.3-10.32-17.8-8.5-1.54.37-3.05.88-4.9,1.42l-17.29-47.49c1-.47,1.57-.76,2.16-1,10.17-4.23,13.48-11.77,9.73-22.17-1.53-4.25-3-8.51-4.63-12.73C365,188.31,357.1,184.67,347,188.2,342.3,189.86,337.6,191.59,333.19,193.17Zm32.9-76.65c-3.86-.12-6.17,1.14-6.93,4.34s.44,6,3.72,6.92c9.13,2.51,14,8.49,15.58,17.63a5.56,5.56,0,0,0,6.16,4.91,5,5,0,0,0,.84-.16,5.8,5.8,0,0,0,4.54-6.83v-.05a34,34,0,0,0-2.07-8.06c-4.29-10-11.58-16.61-21.83-18.7Zm-354,40.55c4.41-.44,6.1-2,7.24-4.8A42.35,42.35,0,0,1,34.23,133c4-2.79,5-5.78,3-8.94s-5.45-3.73-9.42-1.08c-9.22,6.17-15.47,14.79-19.57,25-.52,1.27-.85,3.2-.25,4.23a29.92,29.92,0,0,0,4.13,4.86ZM386.4,39.22c-7.3-.09-16.33,4.47-22.12,11.19-3.28,3.8-3.47,7.2-.53,9.74,2.77,2.39,6,1.77,9.33-1.78,3.86-4.11,8.44-6.78,14.19-7.28,3.85-.34,6.13-2.8,6-6.12S390.42,39.28,386.4,39.22Z"/><path class="cls-2" d="M0,59.08a13,13,0,0,1,10-4.73,137.51,137.51,0,0,1,15.46-.22c3.69.25,5.45,3,5,6.36s-2.59,4.91-6,5.12c-5.69.34-11.38.76-17,1.47-3.63.46-5.78-1.15-7.44-4Z"/><path class="cls-2" d="M333.19,193.17c4.41-1.58,9.11-3.31,13.84-5,10.09-3.53,18,.11,21.7,10.05,1.59,4.22,3.1,8.48,4.63,12.73,3.75,10.4.44,17.94-9.73,22.17-.59.25-1.17.54-2.16,1l17.29,47.49c1.85-.54,3.36-1,4.9-1.42,7.5-1.82,14.82,1.46,17.8,8.5a178.25,178.25,0,0,1,6.6,18.35c2.27,7.59-1.15,15.13-8.59,18q-24.17,9.29-48.65,17.75a14.22,14.22,0,0,1-17.8-7.54,147.79,147.79,0,0,1-7.53-20.52c-1.78-6.12,1.87-13,7.7-16.07a25.86,25.86,0,0,0,4.82-2.82,22.34,22.34,0,0,0-2.68.67c-18.27,6.9-36.78,7.8-55.52,2.21-2.38-.71-3.51,0-4.81,1.93a132,132,0,0,1-9.06,12.11,6.48,6.48,0,0,0-1.44,6.49c3,12,2.81,24.23,1.78,36.47-.28,3.42-1.74,5.89-5.31,6.52-3.77.66-6.65-2.48-6.57-7.06.11-6.11.4-12.23.34-18.33,0-3.84-.58-7.67-.94-12.06-1.29.68-2.17,1.12-3,1.59-5.48,3-10.88,6.1-16.46,8.86-2.05,1-2.72,2-3,4.36-.92,8.81-2.27,17.58-3.52,26.35-.18,1.31-.75,2.56-1,3.86A11.73,11.73,0,0,0,247,380.14c.55-.58,1.05-1.21,1.62-1.77,2.77-2.72,6-3,8.49-.69,2.38,2.13,2.6,5.37.55,8.29a23.71,23.71,0,0,1-39.44-1.16,23.25,23.25,0,0,1-2.91-18c1.37-6.08,2.75-12.17,3.82-18.3.44-2.56.07-5.26.07-7.75-7.65.58-15.29,1.08-22.9,1.86-.87.09-2,1.72-2.3,2.83-3.27,11.48-5.88,23.18-9.71,34.47a23.48,23.48,0,0,1-40.52,7.54c-5.48-6.56-6.81-14.13-4.42-22.47,2.82-9.81,5.53-19.67,7.88-29.61,1.69-7.15,1.21-7.7-3.31-10.54-6.66,2.88-12.77,6.23-19.3,8.2-15.83,4.78-30.13,1-43-9.08-3.12-2.43-6.27-5.13-9.86-6.57-9.28-3.72-15.18,0-16.54,9.83a17,17,0,0,1-33.81-1.94,40,40,0,0,1,7.82-25c13.94-18.87,40.66-24,61.51-11.78,4.45,2.61,8.48,5.93,12.67,9,5.88,4.27,10.23,4.48,16.62.66-2.3-5.61-4.61-11.23-6.58-16-9.9-1.19-19.53-1.55-28.78-3.61C63,273.66,46.84,260.83,35.53,242a23.47,23.47,0,0,1,7.53-32.24C53.5,203,67.32,205.51,75,216c5.28,7.23,11,13.71,20,16.21a42.21,42.21,0,0,0,19.1.51c-7.75-4.33-15.34-7.91-22.24-12.52-30.79-20.58-42.59-49.78-37.87-86,.78-6,2.62-11.91,4.11-17.82.48-1.86.54-3-1.37-4.28-8.55-5.62-11.07-13.86-7.84-23.58a12.25,12.25,0,0,0,.36-6.76,93.81,93.81,0,0,1,.37-52A22.29,22.29,0,0,1,69.19,13.44c25.7-2.62,48.73,3.94,68.84,20.23,2.43,2,4.5,2.5,7.52,1.47a158,158,0,0,1,67.63-7.69c13.12,1.37,26,5,39,7.87,2.63.59,4.4.42,6.48-1.28,20-16.38,43-23.13,68.71-20.65,10.14,1,17.38,6.79,20.23,16.53a91.18,91.18,0,0,1,.52,50.76,13,13,0,0,0,.19,8.44c3.38,9.35.64,17.48-7.67,22.77-2.36,1.51-2,2.93-1.3,5,5.6,17.61,6.91,35.51,2.27,53.46C339.56,178.07,336.07,185.45,333.19,193.17ZM126.78,236.73c-7.14,20.52-5.71,40,5.7,58.1,30,47.6,102,47.68,132.07.14,11.52-18.18,13.06-37.75,5.71-58.2a30.84,30.84,0,0,0-3.31.54c-21.76,6.25-44,8.69-66.61,8.72q-10.17,0-20.35-.44c-3-.12-5.4-1.54-6-4.84-.48-2.77.36-5.16,3-6.26a14.91,14.91,0,0,1,5-.7c15.81-.5,31.66-.32,47.41-1.58,22.3-1.78,43.76-7.32,63.42-18.44,13.58-7.69,24.92-17.79,31.83-32.07,10.27-21.24,9.46-42.93,1.79-64.7-.35-1-2.56-1.93-3.92-1.94-18.76-.13-37.52-.08-56.28-.08q-95.61,0-191.21-.09c-3.28,0-4.93.9-5.47,4-1.62,9.39-4.35,18.74-4.7,28.18-.78,20.9,6.24,39.19,21.67,53.76,15.89,15,35.45,22.55,56.28,27.44,3.49.82,7,1.43,10.47,2.47,3.11.94,4.38,3.46,3.84,6.57s-2.75,4.77-6,4.74a17.94,17.94,0,0,1-3.93-.58C140.65,240,134,238.4,126.78,236.73Zm72-144.9H75.08c-4,0-8,.18-12-.06-2.79-.16-3.46,1.39-3.7,3.54C58.84,100,62.44,103,68.67,103H328.44a16.76,16.76,0,0,0,4-.25,7.19,7.19,0,0,0,5.28-7.86c-.5-4.21-3.65-3-6.06-3q-66.46-.09-132.9-.06ZM331,79.69c-2.46-9.51-4.32-11-13.62-11H87.53a42.62,42.62,0,0,0-5.18.1c-7.08.87-12.6,4.1-16.28,10.9ZM126,56.53H270.78C232.38,33.85,169.81,31.68,126,56.53ZM111.08,246c-6.23-.74-12.64-.93-18.76-2.35-11.44-2.64-19.61-10-26.11-19.56-4.52-6.64-11.44-8-17.2-4-5.6,4-6.47,10.72-2.28,17.26,9,14.08,21.4,23.78,37.43,28.66a68,68,0,0,0,26.92,2.77Zm234.56,85.72a26,26,0,0,0,2.76-.57q22.83-8.31,45.65-16.66c2.35-.87,3.27-2.58,2.36-5.07-1.82-5-3.56-10-5.46-15-.87-2.27-2.5-3.35-5.06-2.42l-46,16.76c-2.36.86-3.3,2.54-2.38,5,1.83,5,3.53,10,5.51,14.94C343.51,330,344.91,330.94,345.64,331.72Zm8.65-133.25c-1.83.57-3,.87-4.1,1.28-7.1,2.58-14.12,5.45-21.32,7.72a65.64,65.64,0,0,0-22.63,12c-1.66,1.37-2.45,2.33-1.49,4.56,1.62,3.77,2.85,7.71,4.26,11.57,1,2.75,2.75,3.64,5.61,2.59q22.61-8.26,45.25-16.44c2.5-.91,3.66-2.58,2.7-5.27-1.8-5-3.53-10-5.52-14.92C356.53,200.32,355.15,199.41,354.29,198.47Zm-67.12,65.45c-1.63,8-3.16,15.48-4.74,23.25a74.42,74.42,0,0,0,51.74-3.11l-8.05-22.15c-12.94,5.62-25.9,6.36-38.95,2ZM160.46,334.69c-3.19,11.18-6.35,22.25-9.52,33.31-2,6.85.95,13.24,7,15.29,6.68,2.26,12.9-.9,15.43-8,1.9-5.38,3.75-10.79,5.24-16.29,1.58-5.8,2.71-11.72,4-17.21ZM38.15,308.58A47.85,47.85,0,0,1,45.06,310c2.7,1,4.47.11,6.87-1.26a35.33,35.33,0,0,1,12.13-4.41c7.58-1.07,14.23,1.86,20.4,6.32,5.23,3.77,10.52,7.88,16.42,10.24,11.54,4.6,22.47,1.78,32.84-5.07l-6.66-7.59c-6.43,3.36-12.89,5.37-20,3.89-6.42-1.32-11.1-5.46-16-9.27-9.64-7.44-20.42-10.72-32.52-8.16A30.37,30.37,0,0,0,38.15,308.58ZM332.53,244.5c5.93,16.26,11.64,31.92,17.42,47.79l17.6-6.4c-5.88-16.13-11.61-31.86-17.43-47.81ZM61.58,29.23a15.17,15.17,0,0,0,2,1.54c15.75,4,30.27,10.6,43,21a2.78,2.78,0,0,0,2.4.45c6.47-3.56,12.87-7.25,19.48-11q-26.29-19.5-58.32-15.69C67.48,25.8,65,27.68,61.58,29.23Zm272.83,1,.44-1.23c-2.75-1.22-5.44-3.3-8.26-3.48a115.1,115.1,0,0,0-20.67.25,73.57,73.57,0,0,0-37.18,15.5c6,3.41,11.87,6.52,17.51,10,2.16,1.32,3.55,1.32,5.53-.3a90.61,90.61,0,0,1,26.91-15.3c5.21-1.91,10.47-3.67,15.72-5.46ZM281.83,232.42c1.36,5.53,2.43,10.6,3.92,15.54a6.73,6.73,0,0,0,3.23,3.52c6.91,3.39,14.25,4,21.77,2.66,3.93-.7,7.85-1.47,10.92-4.41a4.14,4.14,0,0,0-2.59-.37c-11.39,3-17.95-.39-22-11.47-1.26-3.44-2.54-6.87-3.9-10.54ZM58.53,42V69C67.76,58.1,79.3,55.75,92,56.44,81.9,49.26,71.11,44.79,58.53,42Zm280,24.32V42c-12.6,2.91-23.52,7.28-34,14.55,12.39,1.06,25.32-3.3,34,9.73ZM33.6,320.53c-.06,3.39-1.21,6.57,1.91,8.39,1.37.8,4.19,1.19,5,.39,1.76-1.69,2.64-4.29,4.36-7.37Z"/><path class="cls-2" d="M366.09,116.52c10.25,2.09,17.54,8.68,21.84,18.7a34,34,0,0,1,2.07,8.06,5.8,5.8,0,0,1-4.48,6.87h0a5.57,5.57,0,0,1-6.84-3.91,5.93,5.93,0,0,1-.16-.84c-1.61-9.14-6.45-15.12-15.58-17.63-3.28-.9-4.51-3.61-3.72-6.92S362.23,116.4,366.09,116.52Z"/><path class="cls-2" d="M12.12,157.07A29.37,29.37,0,0,1,8,152.22c-.6-1-.27-3,.25-4.23,4.1-10.2,10.35-18.82,19.57-25,4-2.65,7.38-2.07,9.42,1.08s1,6.15-3,8.94a42.37,42.37,0,0,0-14.87,19.25C18.22,155.09,16.53,156.63,12.12,157.07Z"/><path class="cls-2" d="M386.4,39.22c4,.06,6.69,2.3,6.85,5.75s-2.13,5.78-6,6.12c-5.75.5-10.33,3.17-14.19,7.28-3.33,3.55-6.56,4.17-9.33,1.78-2.94-2.54-2.75-5.94.53-9.74C370.07,43.69,379.1,39.13,386.4,39.22Z"/><path class="cls-1" d="M126.78,236.73c7.18,1.67,13.87,3.25,20.58,4.78a17.94,17.94,0,0,0,3.93.58c3.21,0,5.41-1.56,6-4.74s-.73-5.63-3.84-6.57c-3.43-1-7-1.65-10.47-2.47-20.83-4.89-40.39-12.46-56.28-27.44C71.23,186.3,64.21,168,65,147.11c.35-9.44,3.08-18.79,4.7-28.18.54-3.14,2.19-4.05,5.47-4q95.61.18,191.21.09,28.14,0,56.28.08c1.36,0,3.57.93,3.92,1.94,7.67,21.77,8.48,43.46-1.79,64.7-6.92,14.26-18.26,24.34-31.79,32-19.66,11.12-41.12,16.66-63.42,18.44-15.75,1.26-31.6,1.08-47.41,1.58a14.91,14.91,0,0,0-5,.7c-2.68,1.1-3.52,3.49-3,6.26.56,3.3,3,4.72,6,4.84q10.17.43,20.35.44c22.58,0,44.85-2.47,66.61-8.72a30.84,30.84,0,0,1,3.31-.54c7.35,20.45,5.81,40-5.71,58.2-30.11,47.54-102.06,47.46-132.07-.14C121.07,276.73,119.64,257.25,126.78,236.73Zm92-98a20.43,20.43,0,0,0-19.89-20.36c-11-.25-20.45,9.11-20.43,20.21a20.16,20.16,0,1,0,40.32.15Zm83.4,15a4.9,4.9,0,0,0,6.52-4.27c.35-3.36-1.21-6-4.51-6.49-6.8-1.05-13.66-1.82-20.53-2.31a54.53,54.53,0,0,0-11.49.53c-3.36.48-5,3-4.6,6.35a5.35,5.35,0,0,0,5.64,5.08c9.6.38,19.26.74,28.92,1.11ZM101.69,185.1c2.13-.9,3.49-1.37,4.74-2,2.33-1.27,4.5-2.86,6.9-4,5.77-2.68,11.64-5.14,17.45-7.73,3.28-1.46,4.87-4.43,3.83-7.33-1.13-3.16-3.6-5-6.82-4.06a91.33,91.33,0,0,0-29.14,14.31c-1.41,1-2.13,4.45-1.59,6.31S100.11,183.66,101.69,185.1Zm14.59-33v.54h6.37c4.25,0,6.76-2,7-5.42s-2.19-6.5-6.53-6.38q-14.48.42-28.91,1.83c-4.42.44-6.31,3.4-5.67,7.08.6,3.5,3.44,5,8,4.49,6.56-.74,13.15-1.4,19.74-2.11Zm179.23,33c1.56-1.54,3.78-2.91,4.73-4.88,1.42-2.92-.16-5.62-2.87-7-8.61-4.38-17.25-8.7-26.05-12.69-4-1.81-7.37-.3-8.63,3-1.34,3.5.48,6.3,4.69,8.24,7.81,3.62,15.49,7.5,23.23,11.25,1.29.64,2.63,1.16,4.9,2.14ZM138.93,126.22h-.08c0,1.59-.1,3.18,0,4.76.25,3.37,2,5.43,5.48,5.66s5.79-1.6,6.09-4.93a51.93,51.93,0,0,0-.25-11.42c-.4-3-3-4.41-5.88-4.19a5.38,5.38,0,0,0-5.34,5A41.64,41.64,0,0,0,138.93,126.22Zm119.72.34c-.23-2.15.17-4.65-.84-6.24-1.18-1.85-3.45-3.76-5.51-4.11a4.75,4.75,0,0,0-5.46,3.91c0,.2-.05.41-.06.61a61.15,61.15,0,0,0,0,11.48,4.51,4.51,0,0,0,4.67,4.35,5.7,5.7,0,0,0,.58-.06,9.78,9.78,0,0,0,5.69-3.79C258.81,131.17,258.41,128.64,258.65,126.56Z"/><path class="cls-3" d="M198.76,91.83H331.63c2.41,0,5.56-1.19,6.06,3a7.19,7.19,0,0,1-5.28,7.86,16.76,16.76,0,0,1-4,.25H68.7c-6.23,0-9.83-3-9.29-7.69.24-2.15.91-3.7,3.7-3.54,4,.24,8,.06,12,.06Z"/><path class="cls-3" d="M330.93,79.69H66.07c3.68-6.8,9.2-10,16.28-10.9a42.62,42.62,0,0,1,5.18-.1H317.31C326.61,68.69,328.47,70.18,330.93,79.69Z"/><path class="cls-1" d="M126,56.53c43.84-24.85,106.41-22.68,144.81,0Z"/><path class="cls-1" d="M111.08,246v22.83a68,68,0,0,1-26.92-2.77c-16-4.88-28.4-14.58-37.43-28.66-4.19-6.54-3.32-13.31,2.28-17.26,5.76-4.07,12.68-2.69,17.2,4,6.5,9.57,14.67,16.92,26.11,19.56C98.44,245.07,104.85,245.26,111.08,246Z"/><path class="cls-3" d="M345.64,331.72c-.73-.78-2.13-1.68-2.64-2.94-2-4.92-3.68-9.95-5.51-14.94-.92-2.51,0-4.19,2.38-5q23-8.41,46-16.76c2.56-.93,4.19.15,5.06,2.42,1.9,5,3.64,10,5.46,15,.91,2.49,0,4.2-2.36,5.07q-22.81,8.37-45.65,16.66A25.35,25.35,0,0,1,345.64,331.72Z"/><path class="cls-3" d="M354.29,198.47c.86.94,2.24,1.85,2.76,3.12,2,4.91,3.72,9.93,5.52,14.92,1,2.69-.2,4.36-2.7,5.27l-45.25,16.44c-2.86,1-4.62.16-5.61-2.59-1.41-3.86-2.64-7.8-4.26-11.57-1-2.23-.17-3.19,1.49-4.56a65.64,65.64,0,0,1,22.63-12c7.2-2.27,14.22-5.14,21.32-7.72C351.31,199.34,352.46,199,354.29,198.47Z"/><path class="cls-1" d="M287.17,263.92c13.05,4.35,26,3.61,38.95-2l8.05,22.15a74.42,74.42,0,0,1-51.74,3.11C284,279.4,285.54,271.9,287.17,263.92Z"/><path class="cls-1" d="M160.46,334.69l22.09,7.07c-1.24,5.49-2.37,11.41-4,17.21-1.49,5.5-3.34,10.91-5.24,16.29-2.53,7.13-8.75,10.29-15.43,8-6-2.05-9-8.44-7-15.29C154.11,356.94,157.27,345.87,160.46,334.69Z"/><path class="cls-1" d="M38.15,308.58a30.35,30.35,0,0,1,20.3-13.85c12.1-2.56,22.88.72,32.52,8.16,4.94,3.81,9.62,7.95,16,9.27,7.16,1.48,13.62-.53,20-3.89l6.66,7.59c-10.37,6.85-21.3,9.67-32.84,5.07-5.9-2.36-11.19-6.47-16.42-10.24-6.17-4.46-12.82-7.39-20.4-6.32a35.33,35.33,0,0,0-12.13,4.41C49.49,310.15,47.72,311,45,310A47.43,47.43,0,0,0,38.15,308.58Z"/><path class="cls-3" d="M332.53,244.5l17.59-6.42c5.82,15.95,11.55,31.68,17.43,47.81l-17.6,6.4C344.17,276.42,338.46,260.76,332.53,244.5Z"/><path class="cls-1" d="M61.58,29.23c3.43-1.55,5.9-3.43,8.55-3.74q32.07-3.75,58.32,15.69c-6.61,3.76-13,7.45-19.48,11a2.78,2.78,0,0,1-2.4-.45c-12.68-10.37-27.2-16.92-42.95-21C63.27,30.68,63,30.31,61.58,29.23Z"/><path class="cls-1" d="M334.41,30.21c-5.25,1.8-10.51,3.55-15.72,5.41a90.61,90.61,0,0,0-26.91,15.3c-2,1.62-3.37,1.62-5.53.3-5.64-3.45-11.48-6.56-17.51-10a73.57,73.57,0,0,1,37.18-15.5,115.1,115.1,0,0,1,20.67-.25c2.82.18,5.51,2.26,8.26,3.48Z"/><path class="cls-4" d="M281.83,232.42l11.33-5.07c1.36,3.67,2.64,7.1,3.9,10.54,4.07,11.08,10.63,14.48,22,11.47a4.14,4.14,0,0,1,2.59.37c-3.07,2.94-7,3.71-10.92,4.41-7.52,1.33-14.86.73-21.77-2.66a6.73,6.73,0,0,1-3.23-3.52C284.26,243,283.19,238,281.83,232.42Z"/><path class="cls-1" d="M58.53,42C71.11,44.83,81.9,49.3,92,56.49,79.3,55.8,67.76,58.15,58.53,69.05Z"/><path class="cls-1" d="M338.55,66.28c-8.7-13-21.63-8.67-34-9.77C315,49.24,326,44.87,338.55,42Z"/><path class="cls-1" d="M33.6,320.53l11.3,1.41c-1.72,3.08-2.6,5.68-4.36,7.37-.84.8-3.66.41-5-.39C32.39,327.1,33.54,323.92,33.6,320.53Z"/><path class="cls-2" d="M218.73,138.7a20.16,20.16,0,1,1-40.32-.15c0-11.1,9.45-20.46,20.43-20.21A20.43,20.43,0,0,1,218.73,138.7Zm-20.19-8.34a8.17,8.17,0,1,0,.57,0A5.42,5.42,0,0,0,198.54,130.36Z"/><path class="cls-2" d="M302.13,153.73c-9.66-.37-19.32-.72-29-1.11-3.26-.13-5.25-1.92-5.64-5.08-.41-3.38,1.24-5.87,4.6-6.35a54.53,54.53,0,0,1,11.49-.53c6.87.49,13.73,1.26,20.53,2.31,3.3.51,4.86,3.13,4.51,6.49a4.91,4.91,0,0,1-5.27,4.52A4.56,4.56,0,0,1,302.13,153.73Z"/><path class="cls-2" d="M101.69,185.1c-1.58-1.44-4.11-2.69-4.63-4.52s.18-5.26,1.59-6.31A91.23,91.23,0,0,1,127.79,160c3.22-.94,5.69.9,6.82,4.06,1,2.9-.55,5.87-3.83,7.33-5.81,2.59-11.68,5.05-17.45,7.73-2.4,1.11-4.57,2.7-6.9,4C105.18,183.73,103.82,184.2,101.69,185.1Z"/><path class="cls-2" d="M116.28,152.13c-6.59.71-13.18,1.37-19.76,2.14-4.51.54-7.35-1-8-4.49-.64-3.68,1.25-6.64,5.67-7.08q14.41-1.41,28.91-1.83c4.34-.12,6.77,2.8,6.53,6.38s-2.74,5.39-7,5.42h-6.37Z"/><path class="cls-2" d="M295.51,185.16c-2.27-1-3.61-1.5-4.9-2.12-7.74-3.75-15.42-7.63-23.23-11.25-4.21-1.94-6-4.74-4.69-8.24,1.26-3.27,4.64-4.78,8.63-3,8.8,4,17.44,8.31,26.05,12.69,2.71,1.39,4.29,4.09,2.87,7C299.29,182.25,297.07,183.62,295.51,185.16Z"/><path class="cls-2" d="M138.93,126.22a40.38,40.38,0,0,1,0-5.16,5.38,5.38,0,0,1,5.34-5c2.91-.22,5.48,1.19,5.88,4.19a51.93,51.93,0,0,1,.25,11.42c-.3,3.33-2.66,5.15-6.09,4.93s-5.23-2.29-5.48-5.66c-.12-1.58,0-3.17,0-4.76Z"/><path class="cls-2" d="M258.65,126.56c-.24,2.08.16,4.61-.9,6.15a9.78,9.78,0,0,1-5.69,3.79,4.51,4.51,0,0,1-5.19-3.71,5.42,5.42,0,0,1-.06-.58,61.15,61.15,0,0,1,0-11.48,4.75,4.75,0,0,1,4.91-4.58,6,6,0,0,1,.61.06c2.06.35,4.33,2.26,5.51,4.11C258.82,121.91,258.42,124.41,258.65,126.56Z"/><path class="cls-1" d="M198.54,130.36a8.17,8.17,0,1,1,.57,16.33h-.57a8.17,8.17,0,0,1,0-16.33Z"/></svg>