<svg id="Calque_1" data-name="Calque 1" xmlns="http://www.w3.org/2000/svg" viewBox="0 0 409.6 409.6"><defs><style>.cls-1{fill:none;}.cls-2{fill:#282f64;}.cls-3{fill:#d787ba;}.cls-4{fill:#fff;}</style></defs><path class="cls-1" d="M163.17,45H454.6V454.6H45V45H159.18c-3.28,1.84-4.26,4.68-4.16,8.34.19,6.76,0,13.53,0,20.54-1.43.24-2.58.51-3.74.63-52,5.21-87.88,58-73.55,108.28,1,3.67.58,5.52-2.86,7.52-6.62,3.84-6.6,11.91,0,15.84a40.23,40.23,0,0,1,14.7,14.78c2.47,4.28,6.27,5.29,11,4.17a6.44,6.44,0,0,1,4.42,1c5,3.22,10,6.58,14.76,10.13a6.52,6.52,0,0,1,2.63,4.12c1.2,20.35,17.84,32.56,37.39,27.09,2.33-.66,2.9.32,4,1.88,3.8,5.59,7.62,11.18,11.79,16.49,2.7,3.43,6.4,3.73,9.07,1.44s2.69-5.85-.05-9.2c-1.52-1.85-3.24-3.55-4.64-5.48-15.89-22-15.82-45.64-6.36-69.75,8.93-22.78,25.5-39.35,47-50.19,47.31-23.88,94.51-22.85,139.71,5.27,26.54,16.51,42.87,40.66,44.47,72.92.84,16.81-3.78,32.06-15.12,44.92-10.89,12.37-24.94,19.67-40.26,24.78-20,6.68-40.71,8.95-61.69,8.93-28.43,0-56.26-3.15-82.18-16.1-4.15-2.07-7.61-.94-9.12,2.55-1.41,3.27,0,6.26,4.11,8.24,3.53,1.71,7.1,3.32,11.53,5.39-1.88,1.31-2.9,2.51-4.11,2.76a42.34,42.34,0,0,1-9.41,1.2c-8.45-.16-15.34-4.58-22.45-8.52a21.77,21.77,0,0,0-22.33,37.36c16.63,10.83,34.65,16.62,54.74,14.72a3.47,3.47,0,0,1,2.82,1.15,55.94,55.94,0,0,1,2.89,6.82c-2.75-.45-4.71-.59-6.56-1.11-6.26-1.77-12.39-4.09-18.73-5.45-27.69-6-47.08,5.27-59.8,28.9a15.66,15.66,0,0,0,5.9,20.88c7.19,4.3,16.12,2.36,21.17-4.69,1.54-2.16,2.79-4.52,4.26-6.74,4.25-6.41,10.23-9.25,17.8-7.82a113.51,113.51,0,0,1,15.37,4c8.17,2.79,16.46,4.59,25,3.26,5-.78,9.91-2.5,15.07-3.86a18,18,0,0,1,0,4.21c-2.42,9.92-5,19.79-7.47,29.7-2.86,11.55,3.21,22.78,14.22,26.41a21.47,21.47,0,0,0,27.19-13.25c3.24-9.39,5.52-19.12,8.23-28.69.34-1.23.69-2.47,1.08-3.89,6.57,0,12.85.48,19-.13s12.47-2.3,19.05-3.59A33.14,33.14,0,0,1,317,406c6.61,11.37,13.32,22.68,19.73,34.16,3.73,6.7,8.89,11.14,16.5,12.56,15,2.79,29-12.4,24.7-26.78-1-3.21-3.09-4.95-6.48-4.68-3.15.25-5.26,3-5.16,6.47,0,.8.19,1.59.24,2.38A9.91,9.91,0,0,1,360,440.37a9.22,9.22,0,0,1-11.44-4c-7.44-12.86-14.66-25.85-22-38.83l15.77-11.29c4.38,7.15,8.59,14.06,12.83,20.95,2.55,4.15,5.65,5.36,8.83,3.48,3.33-2,3.91-5.51,1.33-9.72Q358.8,390.25,352,379.7c-1.13-1.75-1.61-3-.18-4.94A66.24,66.24,0,0,0,363.22,350c.6-2.56,1.76-3.48,4.39-4.13,15.47-3.78,31-7.44,46.24-12,12.53-3.78,18.1-17.5,12.91-29.4-4.22-9.67-14.76-14.78-25.46-12.18-5.28,1.28-10.49,2.86-16.24,4.43a8.11,8.11,0,0,1,.78-1.26c1.13-.93,2.31-1.81,3.43-2.74,11.19-9.32,19.48-20.65,23.82-34.66,5.93-19.13,4.68-38-2-56.71-.87-2.43-1.51-4.46.07-7.08,12.31-20.42,15-42.22,9.07-65.23-2.56-9.88-9.61-16-19.82-16.74-22.58-1.73-42.94,4-60.6,18.39a5.69,5.69,0,0,1-6.11,1.14,153.46,153.46,0,0,0-55-7.37,18.79,18.79,0,0,1-2.58-.26c3.14-7.9,1.6-12.48-5.33-16.8-2.81-1.76-5.65-3.5-8.31-5.47-6.55-4.83-11-11.38-15.13-18.3-3.25-5.49-8.91-7.57-13.93-4.87C230.82,80,228.8,82.59,227,85c-2.75,3.62-5.13,7.53-7.76,11.46-14.68-12.79-30.81-20.27-49.45-22-2.3-.21-2.81-1.27-2.77-3.35.1-5.72-.12-11.44.09-17.16C167.24,50.22,166.19,47.23,163.17,45Zm158.2,188.53c0-3.59.1-6.25,0-8.9-.24-5.74-3.52-9.91-9.16-10.18-9-.44-18-.33-27,0-3.93.14-7.93,2.61-8.17,6.45-.52,8.37-1.46,17.31.78,25.15,4.56,15.92,29.37,16.42,38.69,6C321.63,246.38,321.59,239.54,321.37,233.53Zm25.39-39.69a16.91,16.91,0,0,0-16.57,15.27c-.34,3.89,1.7,6.81,5.13,7.33,3.15.48,5.91-1.61,6.63-5.38.56-2.95,1.8-5.15,5-5.1,3,0,4.21,2.09,4.75,4.91.77,4,3.6,6.15,6.89,5.52s5.24-3.45,4.88-7.5A16.9,16.9,0,0,0,346.76,193.84ZM233.49,209.76c.92,1.78,1.44,4,2.82,5.28,3.42,3.2,8.28,1.15,9.47-3.93.67-2.85,1.69-5.2,5-5.17,3.53,0,4.48,2.67,5,5.62.63,3.4,2.93,5,6.23,4.88,3.09-.1,5.41-2.95,5.45-6.27.11-8.48-7.45-16-16.35-16.32S234.46,200.78,233.49,209.76Zm157.17,44.57c-.63-.87-1.46-3.19-3.06-4-8-4.2-16-8.21-24.26-11.84a5.6,5.6,0,0,0-7.87,3.29c-1.22,3.27,0,5.86,2.92,7.34q11.89,6,23.95,11.62C386.14,262.49,390.52,259.63,390.66,254.33Zm-165.14-22,0,.42c2.25,0,4.51.06,6.77,0a5.4,5.4,0,0,0,5.59-5.15c.38-3.13-1.17-5.71-4.34-6.21-10.1-1.57-20.14-.62-30,1.79-3.1.76-4.24,3.6-3.59,6.69s2.7,4.49,5.74,4.5a35.36,35.36,0,0,0,4-.38C215,233.48,220.24,232.92,225.52,232.37Zm148-12,0,.22c-2.52.11-5,.1-7.55.36-4.1.44-6.48,2.92-6.3,6.31s2.75,5.36,6.92,5.56q11.52.55,23,1.42c4.76.36,7.67-1.2,8.23-4.83s-1.92-6.4-6.48-7C385.38,221.6,379.43,221.07,373.5,220.41Zm-131,24.89c0-5.32-3.43-8.58-7.21-7-8.87,3.72-17.53,8-26,12.59-2.85,1.53-3.15,5-1.18,7.74s4.58,3.42,7.71,1.88c7.61-3.72,15.3-7.28,22.79-11.22C240.43,248.33,241.67,246.17,242.48,245.3Z" transform="translate(-45 -45)"/><path class="cls-2" d="M163.17,45c3,2.23,4.07,5.22,3.94,9-.21,5.72,0,11.44-.09,17.16,0,2.08.47,3.14,2.77,3.35,18.64,1.68,34.77,9.16,49.45,22,2.63-3.93,5-7.84,7.76-11.46,1.8-2.36,3.82-4.92,6.34-6.27,5-2.7,10.68-.62,13.93,4.87,4.1,6.92,8.58,13.47,15.13,18.3,2.66,2,5.5,3.71,8.31,5.47,6.93,4.32,8.47,8.9,5.33,16.8a18.79,18.79,0,0,0,2.58.26,153.46,153.46,0,0,1,55,7.37,5.69,5.69,0,0,0,6.11-1.14c17.66-14.41,38-20.12,60.6-18.39,10.21.78,17.26,6.86,19.82,16.74,6,23,3.24,44.81-9.07,65.23-1.58,2.62-.94,4.65-.07,7.08,6.73,18.67,8,37.58,2,56.71-4.34,14-12.63,25.34-23.82,34.66-1.12.93-2.3,1.81-3.43,2.74a8.11,8.11,0,0,0-.78,1.26c5.75-1.57,11-3.15,16.24-4.43,10.7-2.6,21.24,2.51,25.46,12.18,5.19,11.9-.38,25.62-12.91,29.4-15.24,4.61-30.77,8.27-46.24,12-2.63.65-3.79,1.57-4.39,4.13a66.24,66.24,0,0,1-11.42,24.79c-1.43,1.92-.95,3.19.18,4.94q6.81,10.55,13.37,21.26c2.58,4.21,2,7.75-1.33,9.72-3.18,1.88-6.28.67-8.83-3.48-4.24-6.89-8.45-13.8-12.83-20.95l-15.77,11.29c7.33,13,14.55,26,22,38.83a9.22,9.22,0,0,0,11.44,4,9.91,9.91,0,0,0,6.55-10.28c-.05-.79-.21-1.58-.24-2.38-.1-3.44,2-6.22,5.16-6.47,3.39-.27,5.52,1.47,6.48,4.68,4.28,14.38-9.75,29.57-24.7,26.78-7.61-1.42-12.77-5.86-16.5-12.56C330.36,428.66,323.65,417.35,317,406a33.14,33.14,0,0,0-2.07-2.85c-6.58,1.29-12.76,3-19.05,3.59s-12.45.13-19,.13c-.39,1.42-.74,2.66-1.08,3.89-2.71,9.57-5,19.3-8.23,28.69a21.47,21.47,0,0,1-27.19,13.25c-11-3.63-17.08-14.86-14.22-26.41,2.46-9.91,5-19.78,7.47-29.7a18,18,0,0,0,0-4.21c-5.16,1.36-10,3.08-15.07,3.86-8.59,1.33-16.88-.47-25-3.26a113.51,113.51,0,0,0-15.37-4c-7.57-1.43-13.55,1.41-17.8,7.82-1.47,2.22-2.72,4.58-4.26,6.74-5.05,7.05-14,9-21.17,4.69a15.66,15.66,0,0,1-5.9-20.88c12.72-23.63,32.11-34.87,59.8-28.9,6.34,1.36,12.47,3.68,18.73,5.45,1.85.52,3.81.66,6.56,1.11a55.94,55.94,0,0,0-2.89-6.82,3.47,3.47,0,0,0-2.82-1.15c-20.09,1.9-38.11-3.89-54.74-14.72a21.77,21.77,0,0,1,22.33-37.36c7.11,3.94,14,8.36,22.45,8.52a42.34,42.34,0,0,0,9.41-1.2c1.21-.25,2.23-1.45,4.11-2.76-4.43-2.07-8-3.68-11.53-5.39-4.07-2-5.52-5-4.11-8.24,1.51-3.49,5-4.62,9.12-2.55,25.92,12.95,53.75,16.07,82.18,16.1,21,0,41.68-2.25,61.69-8.93,15.32-5.11,29.37-12.41,40.26-24.78,11.34-12.86,16-28.11,15.12-44.92-1.6-32.26-17.93-56.41-44.47-72.92-45.2-28.12-92.4-29.15-139.71-5.27-21.47,10.84-38,27.41-47,50.19-9.46,24.11-9.53,47.77,6.36,69.75,1.4,1.93,3.12,3.63,4.64,5.48,2.74,3.35,2.74,6.89.05,9.2s-6.37,2-9.07-1.44c-4.17-5.31-8-10.9-11.79-16.49-1.06-1.56-1.63-2.54-4-1.88-19.55,5.47-36.19-6.74-37.39-27.09a6.52,6.52,0,0,0-2.63-4.12c-4.79-3.55-9.74-6.91-14.76-10.13a6.44,6.44,0,0,0-4.42-1c-4.72,1.12-8.52.11-11-4.17a40.23,40.23,0,0,0-14.7-14.78c-6.62-3.93-6.64-12,0-15.84,3.44-2,3.91-3.85,2.86-7.52C63.45,132.51,99.38,79.72,151.33,74.51c1.16-.12,2.31-.39,3.74-.63,0-7,.14-13.78,0-20.54-.1-3.66.88-6.5,4.16-8.34ZM150.09,166.65c-17.3,3.78-28.92-.27-35.66-12.36a28.28,28.28,0,0,1,4.29-33.89A27.4,27.4,0,0,1,134,112.32a28,28,0,0,1,22.2,5.28c5.86-2,10.57-4.78,15.45-5.15,7.75-.58,15.62.44,23.45.75,1.11,0,2.6.36,3.3-.21,3.62-2.95,7.05-6.14,10.52-9.24-20.7-19.49-59-25.91-89.77-4.93s-36.66,57.64-30.16,77c6.28-7.39,12.23-6.57,17.85,1.54a45.09,45.09,0,0,0,11.37,11.39c8.92,6.08,9.11,12.82-.09,18.77-2.83,1.83-5.38,4.09-8.79,6.71l16.93,12.07c7.87-11.33,18.16-15.69,31.17-13.54,2.51-8.44,7.75-16.46.26-24.89-1.68-1.89-2.4-4.73-3.25-7.24C152.86,176,151.52,171.32,150.09,166.65ZM350,314.05c-13.83,2.2-27.19,4.26-40.51,6.52a6.14,6.14,0,0,0-3.25,2.46c-3.82,5.11-7.41,10.38-11.22,15.5-5,6.74-12.62,6.77-17.65.1-2.8-3.72-5.92-7.3-8-11.39-3.06-5.92-7.85-7.76-13.91-7.5a8.15,8.15,0,0,0-4.17,1.4c-3.52,2.5-6.7,2-9.15-1.7-.49-.73-1-1.81-1.71-2-5.87-1.49-11.79-2.81-17.92-4.23a59.11,59.11,0,0,0,.56,41.88c.91,2.4,2.55,2.22,4.42,2.22h57.44c19.95,0,39.9-.05,59.84.07,2.69,0,4.16-.64,4.8-3.37,1-4.25,2.67-8.38,3.27-12.68C354.11,331.77,353.37,322.34,350,314.05ZM231.8,369.55c26.3,35.2,84.63,33.7,108.43,0ZM211.4,117.23c.35.46.51.86.81,1q10.78,6.64,21.61,13.25c.64.39,1.51,1,2.07.84,5-1.43,10.21-2.35,14.69-4.72,4.82-2.56,8.91-6.51,13.68-10.12a68.74,68.74,0,0,1-26.71-26.87A66.81,66.81,0,0,1,211.4,117.23Zm-17.06,37a82.79,82.79,0,0,0-31.91-14.7c-3.58,12.44.18,35.68,6.45,43.4Zm215.78-14.79A82.25,82.25,0,0,0,378,154.27l25.65,29C410.48,169.81,412.72,155.29,410.12,139.48ZM246.56,398c-2.86,10.1-5.69,20-8.45,29.92-1.8,6.48.72,11.64,6.44,13.37,5.37,1.63,10.27-1.32,12.43-7.59,1.47-4.26,3-8.51,4.16-12.86,1.42-5.28,2.5-10.66,3.66-15.68ZM138.83,123.61a17,17,0,0,0-15.15,10.75A16.41,16.41,0,0,0,146,155.05a4.61,4.61,0,0,0,3-4.54,137.7,137.7,0,0,1,1.58-15.42c.94-5.94.28-7.7-5.27-9.89A48.32,48.32,0,0,0,138.83,123.61Zm211.23,14.18c5.16,3,9.81,5.78,14.65,8.23a5.49,5.49,0,0,0,4.39-.26c8.5-4.55,16.78-9.5,25.35-13.91,3.66-1.88,7.84-2.75,11.79-4.08l.25-1.25c-2.66-.8-5.3-2.21-8-2.27a110.92,110.92,0,0,0-18.23.72A63.94,63.94,0,0,0,350.06,137.79Zm-184.18-11,.1,1.19c13.87,3.71,26.71,9.5,38,18.47a3.08,3.08,0,0,0,2.75.12c5.11-2.77,10.12-5.7,15.17-8.58-.12-.23-.18-.54-.37-.68-14.84-10.82-31.56-14.61-49.62-12.93C169.84,124.53,167.89,125.92,165.88,126.75ZM225.63,382c-2.26-4.4-4.7-6.7-10.06-5.59-3.79.79-8.12-.39-12.1-1.25-8.78-1.89-17.4-4.94-26.27-6-10.9-1.36-20.49,2.55-28.23,10.85l6.69,4.22c8.32-7.7,18.1-8.68,28.42-6.27,6.45,1.5,12.72,3.7,19.12,5.43C210.68,385.31,218.1,385.3,225.63,382ZM157.35,255.36c-.83-10.29-1.65-20.37-2.48-30.54-6.78-2.22-15.1,1.56-18.51,8.41a16.59,16.59,0,0,0,3.15,19.09C143.44,256.22,151.54,259,157.35,255.36Zm29.49,68.84c-2.89,5.47-5.88,11.15-9,17a59.93,59.93,0,0,0,29.22,3.71v-19Zm179,10.08L388.24,329l-5.07-19.11-19.94,4.79C364.1,321.15,364.93,327.43,365.85,334.28Zm34-8.58c4.42-1.43,7.78-2.25,10.92-3.59a9.48,9.48,0,0,0,5.51-11.44,9.23,9.23,0,0,0-9.82-7c-3.62.36-7.17,1.46-11.7,2.44C396.5,312.84,398.1,319,399.85,325.7ZM175,318.41c-4.32-3.36-8.67-6-14.21-3.18-3.54,1.8-5.13,4.75-5.1,8.72.05,6.52,4.93,8.78,9.66,11.36A26.2,26.2,0,0,0,175,318.41Zm-77.7-110.1,10-10.26-9.69-10L87.51,198.25Zm188.81,122,6.13-8.67H279.9ZM141.47,389.87c-2.82,4.6-2.72,6.95.09,8.14a3.82,3.82,0,0,0,5.56-2.72C148.13,390.88,143.58,391.71,141.47,389.87Z" transform="translate(-45 -45)"/><path class="cls-2" d="M321.37,233.53c.22,6,.26,12.85-4.86,18.56-9.32,10.38-34.13,9.88-38.69-6-2.24-7.84-1.3-16.78-.78-25.15.24-3.84,4.24-6.31,8.17-6.45,9-.33,18-.44,27,0,5.64.27,8.92,4.44,9.16,10.18C321.47,227.28,321.37,229.94,321.37,233.53Zm-33.05-7.62c0,5.31-.32,10,.16,14.54a7.51,7.51,0,0,0,3.38,4.92,13.73,13.73,0,0,0,14.08-.1,7,7,0,0,0,3.2-4.63c.43-4.72.15-9.51.15-14.73Z" transform="translate(-45 -45)"/><path class="cls-2" d="M346.76,193.84a16.9,16.9,0,0,1,16.74,15c.36,4.05-1.45,6.84-4.88,7.5s-6.12-1.47-6.89-5.52C351.19,208.05,350,206,347,206c-3.23-.05-4.47,2.15-5,5.1-.72,3.77-3.48,5.86-6.63,5.38-3.43-.52-5.47-3.44-5.13-7.33A16.91,16.91,0,0,1,346.76,193.84Z" transform="translate(-45 -45)"/><path class="cls-2" d="M233.49,209.76c1-9,8.82-16.2,17.6-15.91s16.46,7.84,16.35,16.32c0,3.32-2.36,6.17-5.45,6.27-3.3.11-5.6-1.48-6.23-4.88-.54-2.95-1.49-5.6-5-5.62-3.27,0-4.29,2.32-5,5.17-1.19,5.08-6.05,7.13-9.47,3.93C234.93,213.75,234.41,211.54,233.49,209.76Z" transform="translate(-45 -45)"/><path class="cls-2" d="M390.66,254.33c-.14,5.3-4.52,8.16-8.32,6.38q-12-5.64-23.95-11.62c-3-1.48-4.14-4.07-2.92-7.34a5.6,5.6,0,0,1,7.87-3.29c8.23,3.63,16.3,7.64,24.26,11.84C389.2,251.14,390,253.46,390.66,254.33Z" transform="translate(-45 -45)"/><path class="cls-2" d="M225.52,232.37c-5.28.55-10.55,1.11-15.83,1.65a35.36,35.36,0,0,1-4,.38c-3,0-5.12-1.55-5.74-4.5s.49-5.93,3.59-6.69c9.85-2.41,19.89-3.36,30-1.79,3.17.5,4.72,3.08,4.34,6.21a5.4,5.4,0,0,1-5.59,5.15c-2.26.07-4.52,0-6.77,0Z" transform="translate(-45 -45)"/><path class="cls-2" d="M373.5,220.41c5.93.66,11.88,1.19,17.79,2,4.56.63,7,3.5,6.48,7s-3.47,5.19-8.23,4.83q-11.49-.89-23-1.42c-4.17-.2-6.74-2.12-6.92-5.56s2.2-5.87,6.3-6.31c2.5-.26,5-.25,7.55-.36Z" transform="translate(-45 -45)"/><path class="cls-2" d="M242.48,245.3c-.81.87-2,3-3.9,4-7.49,3.94-15.18,7.5-22.79,11.22-3.13,1.54-5.82.79-7.71-1.88s-1.67-6.21,1.18-7.74c8.48-4.56,17.14-8.87,26-12.59C239.05,236.72,242.52,240,242.48,245.3Z" transform="translate(-45 -45)"/><path class="cls-3" d="M150.09,166.65c1.43,4.67,2.77,9.37,4.33,14,.85,2.51,1.57,5.35,3.25,7.24,7.49,8.43,2.25,16.45-.26,24.89-13-2.15-23.3,2.21-31.17,13.54l-16.93-12.07c3.41-2.62,6-4.88,8.79-6.71,9.2-5.95,9-12.69.09-18.77a45.09,45.09,0,0,1-11.37-11.39c-5.62-8.11-11.57-8.93-17.85-1.54-6.5-19.38-.71-56,30.16-77s69.07-14.56,89.77,4.93c-3.47,3.1-6.9,6.29-10.52,9.24-.7.57-2.19.25-3.3.21-7.83-.31-15.7-1.33-23.45-.75-4.88.37-9.59,3.1-15.45,5.15a28,28,0,0,0-22.2-5.28,27.4,27.4,0,0,0-15.26,8.08,28.28,28.28,0,0,0-4.29,33.89C121.17,166.38,132.79,170.43,150.09,166.65Z" transform="translate(-45 -45)"/><path class="cls-3" d="M350,314.05c3.4,8.29,4.14,17.72,2.81,27.29-.6,4.3-2.29,8.43-3.27,12.68-.64,2.73-2.11,3.38-4.8,3.37-19.94-.12-39.89-.07-59.84-.07H227.43c-1.87,0-3.51.18-4.42-2.22a59.11,59.11,0,0,1-.56-41.88c6.13,1.42,12.05,2.74,17.92,4.23.7.17,1.22,1.25,1.71,2,2.45,3.69,5.63,4.2,9.15,1.7a8.15,8.15,0,0,1,4.17-1.4c6.06-.26,10.85,1.58,13.91,7.5,2.11,4.09,5.23,7.67,8,11.39,5,6.67,12.61,6.64,17.65-.1,3.81-5.12,7.4-10.39,11.22-15.5a6.14,6.14,0,0,1,3.25-2.46C322.78,318.31,336.14,316.25,350,314.05Zm-110.55,36.7a6.07,6.07,0,0,0,5.9-5.82,5.82,5.82,0,0,0-11.64-.15A6.06,6.06,0,0,0,239.42,350.75Zm98.08-32.32a5.79,5.79,0,1,0,5.66,5.95A5.84,5.84,0,0,0,337.5,318.43Zm-6,31.56a5.8,5.8,0,1,0-6,5.6A5.87,5.87,0,0,0,331.53,350Z" transform="translate(-45 -45)"/><path class="cls-4" d="M231.8,369.55H340.23C316.43,403.25,258.1,404.75,231.8,369.55Z" transform="translate(-45 -45)"/><path class="cls-4" d="M211.4,117.23a66.81,66.81,0,0,0,26.15-26.57,68.74,68.74,0,0,0,26.71,26.87c-4.77,3.61-8.86,7.56-13.68,10.12-4.48,2.37-9.73,3.29-14.69,4.72-.56.16-1.43-.45-2.07-.84q-10.83-6.6-21.61-13.25C211.91,118.09,211.75,117.69,211.4,117.23Z" transform="translate(-45 -45)"/><path class="cls-4" d="M194.34,154.27,168.88,183c-6.27-7.72-10-31-6.45-43.4A82.79,82.79,0,0,1,194.34,154.27Z" transform="translate(-45 -45)"/><path class="cls-4" d="M410.12,139.48c2.6,15.81.36,30.33-6.5,43.82l-25.65-29A82.25,82.25,0,0,1,410.12,139.48Z" transform="translate(-45 -45)"/><path class="cls-4" d="M246.56,398l18.24,7.16c-1.16,5-2.24,10.4-3.66,15.68-1.17,4.35-2.69,8.6-4.16,12.86-2.16,6.27-7.06,9.22-12.43,7.59-5.72-1.73-8.24-6.89-6.44-13.37C240.87,418,243.7,408.13,246.56,398Z" transform="translate(-45 -45)"/><path class="cls-4" d="M138.83,123.61a48.32,48.32,0,0,1,6.51,1.59c5.55,2.19,6.21,4,5.27,9.89A137.7,137.7,0,0,0,149,150.51a4.61,4.61,0,0,1-3,4.54,16.41,16.41,0,0,1-22.34-20.69A17,17,0,0,1,138.83,123.61Z" transform="translate(-45 -45)"/><path class="cls-4" d="M350.06,137.79A63.94,63.94,0,0,1,380.28,125a110.92,110.92,0,0,1,18.23-.72c2.68.06,5.32,1.47,8,2.27l-.25,1.25c-3.95,1.33-8.13,2.2-11.79,4.08-8.57,4.41-16.85,9.36-25.35,13.91a5.49,5.49,0,0,1-4.39.26C359.87,143.57,355.22,140.74,350.06,137.79Z" transform="translate(-45 -45)"/><path class="cls-4" d="M165.88,126.75c2-.83,4-2.22,6-2.41,18.06-1.68,34.78,2.11,49.62,12.93.19.14.25.45.36.68-5,2.88-10,5.81-15.16,8.58a3.08,3.08,0,0,1-2.75-.12c-11.29-9-24.13-14.76-38-18.47Z" transform="translate(-45 -45)"/><path class="cls-4" d="M225.63,382c-7.53,3.35-14.95,3.36-22.43,1.35-6.4-1.73-12.67-3.93-19.12-5.43-10.32-2.41-20.1-1.43-28.42,6.27L149,379.92c7.74-8.3,17.33-12.21,28.23-10.85,8.87,1.1,17.49,4.15,26.27,6,4,.86,8.31,2,12.1,1.25C220.93,375.25,223.37,377.55,225.63,382Z" transform="translate(-45 -45)"/><path class="cls-4" d="M157.35,255.36c-5.81,3.59-13.91.86-17.84-3a16.59,16.59,0,0,1-3.15-19.09c3.41-6.85,11.73-10.63,18.51-8.41C155.7,235,156.52,245.07,157.35,255.36Z" transform="translate(-45 -45)"/><path class="cls-4" d="M186.84,324.2l20.27,1.68v19a59.93,59.93,0,0,1-29.22-3.71C181,335.35,184,329.67,186.84,324.2Z" transform="translate(-45 -45)"/><path class="cls-4" d="M365.85,334.28c-.92-6.85-1.75-13.13-2.62-19.65l19.94-4.79L388.24,329Z" transform="translate(-45 -45)"/><path class="cls-4" d="M399.85,325.7c-1.75-6.7-3.35-12.86-5.09-19.55,4.53-1,8.08-2.08,11.7-2.44a9.23,9.23,0,0,1,9.82,7,9.48,9.48,0,0,1-5.51,11.44C407.63,323.45,404.27,324.27,399.85,325.7Z" transform="translate(-45 -45)"/><path class="cls-4" d="M175,318.41a26.2,26.2,0,0,1-9.65,16.9c-4.73-2.58-9.61-4.84-9.66-11.36,0-4,1.56-6.92,5.1-8.72C166.34,312.42,170.69,315.05,175,318.41Z" transform="translate(-45 -45)"/><path class="cls-4" d="M97.31,208.31l-9.8-10.06L97.63,188l9.69,10Z" transform="translate(-45 -45)"/><path class="cls-4" d="M286.12,330.35l-6.22-8.67h12.35Z" transform="translate(-45 -45)"/><path class="cls-4" d="M141.47,389.87c2.11,1.84,6.66,1,5.65,5.42a3.82,3.82,0,0,1-5.56,2.72C138.75,396.82,138.65,394.47,141.47,389.87Z" transform="translate(-45 -45)"/><path class="cls-4" d="M288.32,225.91h21c0,5.22.28,10-.15,14.73a7,7,0,0,1-3.2,4.63,13.73,13.73,0,0,1-14.08.1,7.51,7.51,0,0,1-3.38-4.92C288,235.88,288.32,231.22,288.32,225.91Z" transform="translate(-45 -45)"/><path class="cls-2" d="M239.42,350.75a6.06,6.06,0,0,1-5.74-6,5.82,5.82,0,0,1,11.64.15A6.07,6.07,0,0,1,239.42,350.75Z" transform="translate(-45 -45)"/><path class="cls-2" d="M337.5,318.43a5.8,5.8,0,0,1,5.66,5.95,5.75,5.75,0,1,1-5.66-5.95Z" transform="translate(-45 -45)"/><path class="cls-2" d="M331.53,350a5.8,5.8,0,1,1-5.77-5.85A5.86,5.86,0,0,1,331.53,350Z" transform="translate(-45 -45)"/></svg>