<svg id="Calque_1" data-name="Calque 1" xmlns="http://www.w3.org/2000/svg" viewBox="0 0 409.6 409.6"><defs><style>.cls-1{fill:none;}.cls-2{fill:#282f64;}.cls-3{fill:#d787ba;}</style></defs><path class="cls-1" d="M0,271.47V0H409.6V409.6H0V277.86c1.61,4.56,3.42,9.09,7.89,11.59,7.5,4.19,11.46,10.81,13.65,18.79,2.65,9.6,4.84,19.35,8,28.76,6.45,18.94,19.21,31.69,39,36.36,14.3,3.38,27.71-.13,39.31-8.55,6.15-4.47,10-4.25,16.19.06,16.65,11.58,35.77,15.69,55.92,15.66q60.27-.11,120.55,0c2.52,0,5.05-.13,7.56-.36,11.22-1,20.8-10.23,21.68-21.49.36-4.62-.59-9.35-1-14.38h61.39c12.29,0,18.63-6.39,18.63-18.7V189.48c0-14.72-8.6-23.36-23.25-23.39H332.28A122.8,122.8,0,0,0,324.22,131c-.45-1.16.13-3.1.86-4.3,15.08-24.87,18.69-51.29,11.12-79.34C333.37,36.87,325.5,29.88,314.68,29c-27.3-2.32-51.92,4.47-73.2,22.08A6.92,6.92,0,0,1,234,52.43C196.47,40.28,158.78,40,121.14,52c-4.23,1.34-6.91.56-10.23-2.11C89.74,32.9,65.36,26.42,38.54,29c-10.18,1-17.48,6.65-20.41,16.53-7.9,26.62-5.5,52.39,8.2,76.65,3,5.24,3.11,9.29,1.23,15-9.44,28.47-9.14,56.46,6.38,83.1,5.63,9.67,13.36,17.53,22,24.47a6,6,0,0,0,8.31-.45c2.26-2.44,2.09-5.87-.59-8.53-1.69-1.69-3.61-3.14-5.39-4.75C43.53,217.6,35.16,200.88,33.7,181.1,31.26,148,43.49,120.32,66.81,97.55c26.28-25.65,58.65-38.32,94.83-41.66a166.27,166.27,0,0,1,71.87,8.87c33.57,12,60.24,32.36,76.74,64.61a93.27,93.27,0,0,1,9.89,36.3H200c2.15-1.75,4-3.08,5.61-4.62,3.27-3.06,3.74-6.39,1.45-9.09s-5.92-2.69-9.44.29c-7,5.91-13.43,5.92-20.36,0-3.55-3-7.08-3.15-9.48-.39s-2.26,6.18,1.39,9c4.09,3.17,8.76,5.59,13.2,8.35-8.22,5.12-10.28,13.35-10.09,23,.35,18,.1,35.92.1,53.89v4.69c-1.72-.75-2.86-1.38-4.08-1.76-6.32-2-12.53-4.6-19-5.64-15.93-2.56-30.92,1.06-44.88,8.91-2.83,1.59-5.22,1.92-8.15.53A80.94,80.94,0,0,0,87,249.2c-3.9-1.29-6.94.07-8.19,3.41-1.17,3.12.19,5.92,3.83,7.66,2.21,1.05,4.48,2,6.89,3.06-.81,1-1.28,1.66-1.79,2.27-7.43,8.85-9.9,18.38-5.31,29.6a25.68,25.68,0,0,1,1.66,12.89c-1.4,9.66-1.93,19.12,1,28.55-6.57,3.19-11.82,2.51-16.61-2.75a21.32,21.32,0,0,1-4.63-7.76c-3.14-10.14-5.64-20.48-8.8-30.61C50.31,280.35,41.62,268,27.59,259.75c-10.58-6.21-22.91-1.66-26.8,10A17.82,17.82,0,0,1,0,271.47Zm83.37-58.64A36.15,36.15,0,0,0,87,211.67c9.4-4.54,18.8-9.08,28.17-13.69,3-1.47,4.37-3.9,3.25-7.2s-3.65-4.49-6.92-3.88a21.59,21.59,0,0,0-5.64,1.86c-8.06,4-16.08,8.06-24,12.26-2.69,1.42-4.34,4-3,7,.9,2,3.11,3.38,4.48,4.81Zm16.2-35.26.05.64h6c4.76.07,7.51-1.88,7.73-5.51s-2.45-6.45-7.08-6.29c-10.3.37-20.59,1.09-30.84,2.06-4.11.39-6,3.34-5.35,6.92s3.52,5.19,7.85,4.63c7.17-.92,14.41-1.64,21.64-2.45Zm24.26-27.1h0a40.7,40.7,0,0,0,0,5.18c.41,3.32,2.36,5.32,5.74,5.56a5.77,5.77,0,0,0,6-5.53v-.11a67.35,67.35,0,0,0-.06-10.34,5.5,5.5,0,0,0-5.63-5.37h-.24c-3.34,0-5.4,2.1-5.84,5.43a40.54,40.54,0,0,0,0,5.17Zm127,.15h0a51.56,51.56,0,0,0,0-5.56,5.44,5.44,0,0,0-5.58-5.18c-2.94-.13-5.42,1.44-5.7,4.45a62,62,0,0,0,.06,12.63c.34,3,2.91,4.44,5.87,4.21a5.37,5.37,0,0,0,5.32-5,46.71,46.71,0,0,0,0-5.55Z"/><path class="cls-2" d="M0,271.47a16.31,16.31,0,0,0,.79-1.76c3.89-11.62,16.22-16.17,26.8-10,14,8.23,22.72,20.6,27.47,35.86,3.16,10.13,5.66,20.47,8.8,30.61a21.32,21.32,0,0,0,4.63,7.76c4.79,5.26,10,5.94,16.61,2.75-2.95-9.43-2.42-18.89-1-28.55a25.68,25.68,0,0,0-1.66-12.89c-4.59-11.22-2.12-20.75,5.31-29.6.51-.61,1-1.24,1.79-2.27-2.41-1.07-4.68-2-6.89-3.06-3.64-1.74-5-4.54-3.83-7.66,1.25-3.34,4.29-4.7,8.19-3.41a80.94,80.94,0,0,1,9.27,3.63c2.93,1.39,5.32,1.06,8.15-.53,14-7.85,29-11.47,44.88-8.91,6.47,1,12.68,3.67,19,5.64a43.19,43.19,0,0,1,4.08,1.76v-4.69c0-18,.25-35.93-.1-53.89-.19-9.69,1.87-17.92,10.09-23-4.44-2.76-9.11-5.18-13.2-8.35-3.65-2.83-3.81-6.23-1.39-9s5.93-2.61,9.48.39c6.93,5.88,13.38,5.87,20.36,0,3.52-3,7.06-3.09,9.44-.29s1.82,6-1.45,9.09c-1.63,1.54-3.46,2.87-5.61,4.62H320.14a93.27,93.27,0,0,0-9.89-36.3c-16.5-32.25-43.17-52.62-76.74-64.61a166.27,166.27,0,0,0-71.87-8.87c-36.18,3.34-68.55,16-94.83,41.66C43.49,120.32,31.26,148,33.7,181.1c1.46,19.78,9.83,36.5,24.61,49.88,1.78,1.61,3.7,3.06,5.39,4.75,2.68,2.66,2.85,6.09.59,8.53a6,6,0,0,1-8.31.45c-8.68-6.94-16.41-14.8-22-24.47-15.52-26.64-15.82-54.63-6.38-83.1,1.88-5.67,1.73-9.72-1.23-15-13.7-24.26-16.1-50-8.2-76.65C21.06,35.65,28.36,30,38.54,29c26.82-2.58,51.2,3.9,72.37,20.89,3.32,2.67,6,3.45,10.23,2.11,37.64-12,75.33-11.72,112.91.37A6.92,6.92,0,0,0,241.51,51c21.28-17.61,45.9-24.4,73.2-22.08,10.82.92,18.69,7.91,21.52,18.38,7.57,28.05,4,54.47-11.12,79.34-.73,1.2-1.31,3.14-.86,4.3A122.88,122.88,0,0,1,332.31,166h53.24c14.65,0,23.24,8.67,23.25,23.39V325.51c0,12.31-6.34,18.69-18.63,18.7H328.78c.38,5,1.33,9.76,1,14.38-.88,11.26-10.46,20.47-21.68,21.49-2.51.23-5,.36-7.56.36H180c-20.15,0-39.27-4.08-55.92-15.66-6.19-4.31-10-4.53-16.19-.06-11.6,8.42-25,11.93-39.31,8.55C48.79,368.69,36,355.94,29.58,337c-3.2-9.41-5.39-19.16-8-28.76-2.19-8-6.15-14.6-13.65-18.79-4.47-2.5-6.28-7-7.89-11.59Zm184.49,60.81H392.43c2.68-.17,4.26-1.68,4.32-4.24.13-5.74,0-11.48,0-17.68h-4.63c-3.85,0-7.72.08-11.56-.16a5.28,5.28,0,0,1-5.3-5.26v-.11c-.18-3.16,1.48-5.27,4.66-5.91a25.22,25.22,0,0,1,4.75-.36c3.94-.05,7.88,0,12.11,0V191.8c0-8.41-3.27-11.6-11.86-11.6H196.13c-8.6,0-11.77,3.13-11.78,11.64V298.56H349a32.19,32.19,0,0,1,4.39.12c3.47.45,5.63,2.35,5.76,5.91.11,3.2-2.52,5.5-6.3,5.74-1.33.08-2.66,0-4,0H184.49Zm-67.19,12c1.08,1.23,1.52,1.86,2.08,2.36,14.47,12.93,31.41,20.67,50.75,21.36,23.5.85,47.05.42,70.58.53a22.5,22.5,0,0,0,3.18-.28,12.28,12.28,0,0,0,10-7.57c3.75-8.35-1.41-16.4-10.43-16.4Zm55-46.62c0-10.32.06-20.66-.11-31,0-1-1.45-2.07-2.46-2.77-12.64-8.71-26.57-11-41.43-7.88-13.92,3-26.13,8.94-34.2,21.33a12.76,12.76,0,0,0,3.1,17.41c5.59,4.17,13.09,3,18-2.24a38.34,38.34,0,0,1,10.06-8.13c11.37-5.8,29.1-6.23,37.66,9.95,2.22,4.1,5.33,4.12,9.47,3.31ZM172.15,310H101.51c-5,0-6.42,1.48-6.49,6.39v8.78c0,6.12,1,7.09,7.22,7.09h65.81c1.3,0,2.59-.11,4.1-.18ZM35.23,282.22A19.83,19.83,0,0,1,33,285c-5,4.13-4.84,8.18-2.19,14.2,3.64,8.29,5.24,17.5,7.61,26.34,3.31,12.38,8.64,23.35,19.8,30.74,14.88,9.85,33.67,7.88,48.32-5.38-.58-.72-1.15-1.45-1.76-2.14-5.14-5.93-5.42-5.76-12.27-2.28a34.89,34.89,0,0,1-12,3.94c-11.8,1.19-22.82-6.25-27.53-18.8-2.84-7.55-4.56-15.52-6.67-23.33C43.88,299.28,41.16,290.42,35.23,282.22ZM326.6,58.79c-15.88,3.68-30,9.75-42.6,20a141.37,141.37,0,0,1,33.16,37.84C327.13,98.07,330.16,79.25,326.6,58.79Zm-256.92,20c-11-9.41-30.6-18.45-42.53-19.67-3.51,20-.55,38.86,9.52,57.45,8.83-14.9,19.95-27,33-37.76ZM264,368.32c.86.09,1.38.19,1.9.19h37.89c5.6,0,10.17-1.91,12.92-7,4.45-8.24-.75-17.23-9.9-17.23H265C268.65,360.15,266.33,360.47,264,368.32ZM30.44,47.19c18,4.34,34.05,11.57,48.1,23.06a3.06,3.06,0,0,0,2.76.23c7.06-3.89,14-7.93,21.07-11.92-.1-.16-.18-.46-.38-.61C83.51,44,62.61,38.75,39.73,41A11.09,11.09,0,0,0,30.44,47.19Zm292.71-.46c-2.38-4.1-6-5.65-10.34-6-10.26-.75-20.43-.31-30.43,2.34a82.9,82.9,0,0,0-31.15,15.37c6.74,3.8,13.28,7.3,19.6,11.17,2.34,1.43,3.67,1.12,5.91-.29,8.5-5.35,17-10.77,26-15.26C309.06,50.93,316.12,49.2,323.15,46.73ZM26.35,273.29c-3.74-2.21-6.61-6-11-3.52a7.09,7.09,0,0,0-3.11,5c-.17,4.52,3.88,5.75,7.06,7.78q1.77-1.76,3.36-3.68C23.91,277.19,25,275.36,26.35,273.29Zm124.22,24.6c-5-6.6-18.94-6.36-23.5,0Z"/><path class="cls-2" d="M83.37,212.83C82,211.4,79.79,210,78.87,208c-1.35-2.93.3-5.54,3-7,8-4.2,16-8.26,24-12.26a21.59,21.59,0,0,1,5.64-1.86c3.27-.61,5.81.62,6.92,3.88s-.29,5.73-3.25,7.2c-9.37,4.61-18.77,9.15-28.17,13.69A33.68,33.68,0,0,1,83.37,212.83Z"/><path class="cls-2" d="M99.57,177.57c-7.23.81-14.47,1.53-21.68,2.45-4.33.56-7.24-1-7.85-4.63s1.24-6.53,5.35-6.92q15.38-1.5,30.84-2.06c4.63-.16,7.3,2.74,7.08,6.29s-3,5.58-7.73,5.51h-6Z"/><path class="cls-2" d="M123.83,150.47a40.54,40.54,0,0,1,0-5.17c.44-3.33,2.5-5.41,5.84-5.43a5.5,5.5,0,0,1,5.86,5.12c0,.08,0,.16,0,.24a67.35,67.35,0,0,1,.06,10.34,5.76,5.76,0,0,1-5.89,5.64h-.11c-3.38-.24-5.33-2.24-5.74-5.56a40.7,40.7,0,0,1,0-5.18Z"/><path class="cls-2" d="M250.78,150.62a46.88,46.88,0,0,1,0,5.56,5.37,5.37,0,0,1-5.32,5c-3,.23-5.53-1.23-5.87-4.21a62,62,0,0,1-.06-12.63c.28-3,2.76-4.58,5.7-4.45a5.44,5.44,0,0,1,5.58,5.18,51.56,51.56,0,0,1,0,5.56Z"/><path class="cls-3" d="M184.49,332.28V310H348.88c1.33,0,2.66.05,4,0,3.78-.24,6.41-2.58,6.3-5.82-.13-3.61-2.29-5.54-5.76-6A32.61,32.61,0,0,0,349,298H184.35V189.8c0-8.63,3.18-11.8,11.78-11.8H385c8.59,0,11.86,3.24,11.86,11.76V298H384.71a25.22,25.22,0,0,0-4.75.36,5.36,5.36,0,0,0-4.67,6v0c.19,3.2,2.08,5.23,5.3,5.44,3.84.25,7.71.13,11.56.16h4.63c0,6.28.09,12.1,0,17.92-.06,2.6-1.64,4.13-4.32,4.3-.93.06-1.86,0-2.8,0H184.49ZM319.55,238a29,29,0,1,0-29.17,29.09C306.26,267.34,319.56,254.08,319.55,238Z"/><path class="cls-1" d="M117.3,344.26H243.47c9,0,14.18,8.05,10.43,16.4a12.28,12.28,0,0,1-10,7.57,22.5,22.5,0,0,1-3.18.28c-23.53-.11-47.08.32-70.58-.53-19.34-.69-36.28-8.43-50.75-21.36A31,31,0,0,1,117.3,344.26Z"/><path class="cls-1" d="M172.34,297.64c-4.14.81-7.25.79-9.43-3.32-8.56-16.18-26.29-15.75-37.66-9.95a38.34,38.34,0,0,0-10.06,8.13c-4.86,5.21-12.36,6.41-18,2.24a12.76,12.76,0,0,1-3.1-17.41c8.07-12.39,20.28-18.36,34.2-21.33,14.86-3.16,28.79-.83,41.43,7.88,1,.7,2.44,1.82,2.46,2.77C172.4,277,172.34,287.32,172.34,297.64Z"/><path class="cls-3" d="M172.15,310v22.1c-1.51.07-2.8.18-4.1.18H102.24c-6.23,0-7.21-1-7.22-7.09v-8.78c.07-4.91,1.48-6.37,6.49-6.39h43.08Z"/><path class="cls-1" d="M35.23,282.22c5.93,8.2,8.65,17.06,11.09,26.06,2.11,7.81,3.83,15.78,6.67,23.33,4.71,12.55,15.73,20,27.53,18.8a34.89,34.89,0,0,0,12-3.94c6.85-3.48,7.13-3.65,12.27,2.28.61.69,1.18,1.42,1.76,2.14-14.65,13.26-33.44,15.23-48.32,5.38C47,348.88,41.7,337.91,38.39,325.53c-2.37-8.84-4-18-7.61-26.34-2.65-6-2.77-10.07,2.19-14.2A19.39,19.39,0,0,0,35.23,282.22Z"/><path class="cls-1" d="M326.6,58.79c3.56,20.46.53,39.28-9.44,57.81A141.37,141.37,0,0,0,284,78.76C296.61,68.54,310.72,62.47,326.6,58.79Z"/><path class="cls-1" d="M69.68,78.81c-13.06,10.71-24.18,22.86-33,37.78C26.61,98,23.68,79.14,27.16,59.14,39.08,60.36,58.67,69.4,69.68,78.81Z"/><path class="cls-1" d="M264,368.32c2.33-7.85,4.65-8.17,1-24.06h41.78c9.15,0,14.35,9,9.9,17.23-2.75,5.12-7.32,7-12.92,7H265.9A15,15,0,0,1,264,368.32Z"/><path class="cls-1" d="M30.44,47.19a11.09,11.09,0,0,1,9.29-6.29C62.61,38.75,83.51,44,102,58c.2.15.28.45.38.61-7,4-14,8-21.07,11.92a3.06,3.06,0,0,1-2.76-.23C64.49,58.76,48.39,51.53,30.44,47.19Z"/><path class="cls-1" d="M323.15,46.73c-7,2.47-14.09,4.2-20.42,7.37-9,4.49-17.49,9.91-26,15.26-2.24,1.41-3.57,1.72-5.91.29-6.32-3.87-12.86-7.37-19.6-11.17a82.9,82.9,0,0,1,31.15-15.37c10-2.65,20.17-3.09,30.43-2.34C317.14,41.08,320.77,42.63,323.15,46.73Z"/><path class="cls-1" d="M26.35,273.29c-1.36,2.07-2.44,3.9-3.71,5.6q-1.59,1.92-3.36,3.68c-3.18-2-7.23-3.26-7.06-7.78a7.09,7.09,0,0,1,3.11-5C19.74,267.27,22.61,271.08,26.35,273.29Z"/><path class="cls-1" d="M150.57,297.89h-23.5C131.63,291.53,145.52,291.29,150.57,297.89Z"/><path class="cls-2" d="M319.55,238c0,16.06-13.29,29.32-29.17,29.09A29,29,0,1,1,319.55,238Zm-28.88-17a17.06,17.06,0,1,0,16.9,17.22V238a17,17,0,0,0-16.9-17Z"/><path class="cls-1" d="M290.67,221a17,17,0,1,1-.79,0Z"/></svg>