<svg width="65" height="63" viewBox="0 0 65 63" fill="none" xmlns="http://www.w3.org/2000/svg">
<path d="M18.6037 22.9345C18.6037 17.7984 14.4379 13.6335 9.30091 13.6335C4.1639 13.6335 0 17.7984 0 22.9345C0 28.0742 4.16299 32.2372 9.30091 32.2372C14.4388 32.2372 18.6037 28.0742 18.6037 22.9345Z" fill="#1D2769"/>
<path d="M55.6981 15.4505C50.562 15.4505 46.3972 19.6153 46.3972 24.7514C46.3972 29.8911 50.562 34.0523 55.6981 34.0523C60.8351 34.0523 65 29.8911 65 24.7514C65 19.6153 60.8361 15.4505 55.6981 15.4505Z" fill="#1D2769"/>
<path d="M47.2502 35.1052C46.6036 34.3082 45.6882 33.3855 44.6372 32.4179C41.8325 28.7832 37.4457 26.4316 32.5004 26.4316C28.099 26.4316 24.1423 28.2953 21.3459 31.265C19.7574 32.6472 18.345 33.9963 17.4462 35.1061L16.8445 35.8407C14.038 39.2627 10.5445 43.5201 10.5702 50.7446C10.595 57.4536 16.0585 62.9153 22.7483 62.9153C26.5691 62.9153 30.0709 61.1488 32.3482 58.1837C34.6236 61.1488 38.1263 62.9153 41.9508 62.9153C48.6378 62.9153 54.1004 57.4545 54.1261 50.7446C54.1518 43.5201 50.6574 39.2627 47.8518 35.8407L47.2502 35.1052Z" fill="#1D2769"/>
<path d="M33.1453 20.4985C38.8058 20.4985 43.3945 15.9098 43.3945 10.2493C43.3945 4.58875 38.8058 0 33.1453 0C27.4847 0 22.896 4.58875 22.896 10.2493C22.896 15.9098 27.4847 20.4985 33.1453 20.4985Z" fill="#1D2769"/>
</svg>
