<svg xmlns="http://www.w3.org/2000/svg" viewBox="0 0 456.46 508"><defs><style>.cls-1{fill:#fbf5f3;}.cls-1,.cls-6,.cls-7{stroke:#1d2769;}.cls-1,.cls-2,.cls-6{stroke-linecap:round;stroke-linejoin:round;}.cls-1,.cls-2,.cls-6,.cls-8{stroke-width:5px;}.cls-2,.cls-5,.cls-7{fill:#1d2769;}.cls-2{stroke:#fbf5f3;}.cls-3{fill:#fff;stroke:#1d1d1b;}.cls-3,.cls-7,.cls-8{stroke-miterlimit:10;}.cls-4,.cls-8{fill:#d482b5;}.cls-6{fill:none;}.cls-7{font-size:66px;stroke-width:2px;font-family:CenturyGothic, Century Gothic;}.cls-8{stroke:#282f64;}</style></defs><g id="Calque_5" data-name="Calque 5"><path class="cls-1" d="M342.52,54.71A335.39,335.39,0,0,1,251.19,2.88a335.63,335.63,0,0,1-91.34,51.83A335.5,335.5,0,0,1,48.54,76a445.44,445.44,0,0,0,11.78,89c35.2,148.32,138.52,240.71,190.87,281C303.53,405.7,406.85,313.31,442.06,165a446.9,446.9,0,0,0,11.78-89A335.5,335.5,0,0,1,342.52,54.71Z" transform="translate(-22.42 -0.38)"/><path class="cls-2" d="M330.75,73.8a294.19,294.19,0,0,1-80.12-45.55A294.12,294.12,0,0,1,170.5,73.8,294.21,294.21,0,0,1,72.85,92.5a392.72,392.72,0,0,0,10.33,78.19C114.07,301,204.7,382.2,250.63,417.56,296.55,382.2,387.19,301,418.07,170.69A392,392,0,0,0,428.4,92.5,294.21,294.21,0,0,1,330.75,73.8Z" transform="translate(-22.42 -0.38)"/><path class="cls-3" d="M318,126.48" transform="translate(-22.42 -0.38)"/><path class="cls-3" d="M213.69,124.4" transform="translate(-22.42 -0.38)"/><path class="cls-1" d="M312.68,122.11l61-67.68c4.52-4.64,12.34-3.66,12.9,6.81,2.17,41,2.47,100.38,1.4,129.85-1.78,183.82-275,181.42-273.91.82-.21-37.12.09-90.61.05-132.19A7,7,0,0,1,126.26,55l67.9,64.63C229.56,107.45,284.45,103.85,312.68,122.11Z" transform="translate(-22.42 -0.38)"/><polygon class="cls-4" points="161.61 130.11 111.41 144.97 111.41 90.61 161.61 130.11"/><polygon class="cls-4" points="303.69 131.01 350.61 143.69 350.19 87.2 303.69 131.01"/><path class="cls-5" d="M205.86,220.42c.23,15.8-24.58,15.8-24.35,0C181.28,204.63,206.09,204.63,205.86,220.42Z" transform="translate(-22.42 -0.38)"/><path class="cls-4" d="M233.74,254.13l15.49,16.92a4.2,4.2,0,0,0,6.31-.13l13.91-16.57c8.31-15.69-12.75-18.06-18-7C245.94,237.18,225.23,239.2,233.74,254.13Z" transform="translate(-22.42 -0.38)"/><path class="cls-3" d="M210.84,248.3" transform="translate(-22.42 -0.38)"/><path class="cls-3" d="M228.37,246.8" transform="translate(-22.42 -0.38)"/><path class="cls-1" d="M280.46,272.73c-.73,26.32-24,8.59-27.87,2.92-5.09,8.83-26,20.89-29.53-1.77" transform="translate(-22.42 -0.38)"/><line class="cls-1" x1="271.67" y1="258.44" x2="312.37" y2="249.81"/><line class="cls-1" x1="271.41" y1="270.88" x2="314.11" y2="276.14"/><line class="cls-1" x1="269.81" y1="283.85" x2="304.17" y2="298.85"/><line class="cls-1" x1="187.99" y1="258.61" x2="146.23" y2="249.36"/><line class="cls-1" x1="189.32" y1="272.07" x2="145.1" y2="276.46"/><line class="cls-1" x1="190.59" y1="284.86" x2="154.7" y2="299"/><path class="cls-1" d="M244.61,107.45c24.23,13.4,44.45,26.3,73.35,57.23,25.67,27.47,51.35,60,60.15,80.81C369.69,266.94,362,274.36,353,285.73c-3.41-20.47-95.71-137.58-158.83-166.13C216.24,113.08,217.67,112.45,244.61,107.45Z" transform="translate(-22.42 -0.38)"/><path class="cls-3" d="M229.56,127.55" transform="translate(-22.42 -0.38)"/><path class="cls-6" d="M428.4,279.8" transform="translate(-22.42 -0.38)"/><path class="cls-1" d="M132.28,425.24c3.85,5.56,9.11-4.18,7.18-3.6-36.13,10.8-75.15-13.51-114.54-62.79,10.13-13.43,38.63-20.48,60.19-52.15a267.58,267.58,0,0,0,52.1,67.58,8.05,8.05,0,0,1,2.77,7.6Z" transform="translate(-22.42 -0.38)"/><path class="cls-5" d="M137.49,384.23l1.46-3.12a5.46,5.46,0,0,0-1.81-6.76c-1.37-1-2.89-2-6.19-4.57-6.68-5.18-25.47-3.55-22.91,1.67" transform="translate(-22.42 -0.38)"/><path class="cls-1" d="M367.05,426.17c-3.85,5.55-2.37,7.16-.6,8.13,17,9.27,70.55-26.61,109.93-75.89-10.12-13.43-40.67-22-62.22-53.71a249.79,249.79,0,0,1-52,70.5,8,8,0,0,0-2.41,3.43,8,8,0,0,0-.36,4.17Z" transform="translate(-22.42 -0.38)"/><path class="cls-5" d="M361.91,387.94l-1.45-4.12c-1.12-3.16-.36-6.93,1.81-8.93,1.36-1.27,2.88-2.66,6.19-6.05,6.67-6.85,25.47-4.7,22.9,2.2" transform="translate(-22.42 -0.38)"/><path class="cls-1" d="M109.91,370.82c29.26,18.52,72.53,43.09,135.41,42.78,61.63-.31,116.36-24.4,145.4-42.78,11.29,41.33,27.71,41.46,37.85,71.8-50.46,32.21-124,52.05-182.83,52.38-60.37.34-116.2-15.52-172.89-49.06C83.16,411.83,104.79,409.77,109.91,370.82Z" transform="translate(-22.42 -0.38)"/><path class="cls-5" d="M259.12,471.26" transform="translate(-22.42 -0.38)"/><text class="cls-7" transform="matrix(0.86, 0.36, -0.39, 0.92, 77.53, 444.33)">A</text><text class="cls-7" transform="matrix(0.9, 0.23, -0.25, 0.97, 123.92, 463.83)">D</text><text class="cls-7" transform="matrix(0.93, 0.08, -0.08, 1, 173.63, 476.42)">C</text><text class="cls-7" transform="matrix(0.93, -0.08, 0.09, 1, 234.54, 479.87)">T</text><text class="cls-7" transform="matrix(0.9, -0.24, 0.26, 0.97, 271.76, 476.59)">M</text><text class="cls-7" transform="matrix(0.86, -0.35, 0.38, 0.92, 335.44, 458.22)">H</text><text x="-22.42" y="-0.38"/><text x="-22.42" y="-0.38"/><text x="-22.42" y="-0.38"/></g><g id="Calque_3" data-name="Calque 3"><path class="cls-8" d="M262.9,103.32a11.19,11.19,0,0,1,4.1-8.68,98.2,98.2,0,0,1,36.66-18.77A11.24,11.24,0,0,1,316.22,81a37.95,37.95,0,0,1,.77,37.89,11.18,11.18,0,0,1-13.76,5.1c-4.9-1.85-10.12-3.66-15.65-5.36s-11-3.19-16.13-4.44a11.19,11.19,0,0,1-8.55-10.89Z" transform="translate(-22.42 -0.38)"/><path class="cls-8" d="M243.2,103.32a11.19,11.19,0,0,0-4.1-8.68A98.21,98.21,0,0,0,219,82a97.07,97.07,0,0,0-16.57-6.08A11.23,11.23,0,0,0,189.88,81a37.95,37.95,0,0,0-.77,37.89,11.17,11.17,0,0,0,13.76,5.1c4.9-1.85,10.12-3.66,15.65-5.36s11-3.19,16.13-4.44a11.19,11.19,0,0,0,8.55-10.89Z" transform="translate(-22.42 -0.38)"/><circle class="cls-8" cx="230.31" cy="100.7" r="18.95"/></g></svg>