<svg id="Calque_2" data-name="Calque 2" xmlns="http://www.w3.org/2000/svg" viewBox="0 0 455.24 497.2"><defs><style>.cls-1{fill:#fbf5f3;}.cls-1,.cls-6{stroke:#1d2769;}.cls-1,.cls-2,.cls-6{stroke-linecap:round;stroke-linejoin:round;stroke-width:5px;}.cls-2,.cls-5{fill:#1d2769;}.cls-2{stroke:#fbf5f3;}.cls-3{fill:#fff;stroke:#1d1d1b;stroke-miterlimit:10;}.cls-4{fill:#d482b5;}.cls-6{fill:none;}</style></defs><path class="cls-1" d="M351.46,61.48A372.83,372.83,0,0,1,250,3.9,372.83,372.83,0,0,1,148.54,61.48,372.91,372.91,0,0,1,24.88,85.13,495.34,495.34,0,0,0,38,184C77.07,348.76,191.85,451.4,250,496.1,308.15,451.4,422.93,348.76,462,184a495.34,495.34,0,0,0,13.08-98.86A372.91,372.91,0,0,1,351.46,61.48Z" transform="translate(-22.38 -1.4)"/><path class="cls-2" d="M338.39,82.69a327.16,327.16,0,0,1-89-50.6,327.16,327.16,0,0,1-89,50.6A326.69,326.69,0,0,1,51.89,103.46a435.48,435.48,0,0,0,11.48,86.87c34.31,144.78,135,235,186,274.24,51-39.28,151.7-129.46,186-274.24a435.48,435.48,0,0,0,11.48-86.87A326.65,326.65,0,0,1,338.39,82.69Z" transform="translate(-22.38 -1.4)"/><path class="cls-3" d="M324.18,141.21" transform="translate(-22.38 -1.4)"/><path class="cls-3" d="M208.35,138.9" transform="translate(-22.38 -1.4)"/><path class="cls-1" d="M318.31,136.36l67.8-75.19c5-5.15,13.71-4.06,14.33,7.57,2.41,45.53,2.75,111.5,1.56,144.24-2,204.21-305.45,201.54-304.28.92-.24-41.24.09-100.66,0-146.85a7.79,7.79,0,0,1,13.46-5.28l75.43,71.8C226,120.07,287,116.07,318.31,136.36Z" transform="translate(-22.38 -1.4)"/><polygon class="cls-4" points="153.02 144.26 97.25 160.76 97.25 100.38 153.02 144.26"/><polygon class="cls-4" points="310.86 145.26 362.98 159.34 362.51 96.59 310.86 145.26"/><path class="cls-5" d="M199.65,245.57c.26,17.55-27.31,17.55-27.05,0C172.35,228,199.91,228,199.65,245.57Z" transform="translate(-22.38 -1.4)"/><path class="cls-4" d="M230.62,283l17.2,18.79a4.66,4.66,0,0,0,7-.15l15.46-18.4c9.24-17.43-14.17-20.07-20-7.78C244.17,264.19,221.16,266.42,230.62,283Z" transform="translate(-22.38 -1.4)"/><path class="cls-3" d="M205.18,276.54" transform="translate(-22.38 -1.4)"/><path class="cls-3" d="M224.66,274.87" transform="translate(-22.38 -1.4)"/><path class="cls-1" d="M282.52,303.68c-.82,29.24-26.68,9.54-31,3.24-5.66,9.81-28.84,23.21-32.81-2" transform="translate(-22.38 -1.4)"/><line class="cls-1" x1="275.28" y1="286.82" x2="320.5" y2="277.23"/><line class="cls-1" x1="275" y1="300.64" x2="322.43" y2="306.48"/><line class="cls-1" x1="273.23" y1="315.05" x2="311.39" y2="331.71"/><line class="cls-1" x1="182.32" y1="287.01" x2="135.94" y2="276.74"/><line class="cls-1" x1="183.81" y1="301.96" x2="134.68" y2="306.84"/><line class="cls-1" x1="185.22" y1="316.18" x2="145.35" y2="331.88"/><path class="cls-1" d="M242.69,120.07c26.92,14.89,49.38,29.22,81.49,63.58,28.51,30.51,57.05,66.65,66.82,89.76-9.36,23.84-17.95,32.08-27.91,44.7-3.79-22.73-106.33-152.83-176.44-184.54C211.18,126.32,212.77,125.62,242.69,120.07Z" transform="translate(-22.38 -1.4)"/><path class="cls-3" d="M226,142.4" transform="translate(-22.38 -1.4)"/><path class="cls-6" d="M446.87,311.53" transform="translate(-22.38 -1.4)"/><path class="cls-5" d="M260.29,460.59" transform="translate(-22.38 -1.4)"/><text x="-22.38" y="-1.4"/><text x="-22.38" y="-1.4"/><text x="-22.38" y="-1.4"/></svg>